<?xml version="1.0" encoding="utf-8"?>
<!-- Generator: Adobe Illustrator 19.0.0, SVG Export Plug-In . SVG Version: 6.00 Build 0)  -->
<svg version="1.1" id="OITF" xmlns="http://www.w3.org/2000/svg" xmlns:xlink="http://www.w3.org/1999/xlink" x="0px" y="0px"
	 viewBox="0 271 1128 60" style="enable-background:new 0 271 1128 60;" xml:space="preserve">
<style type="text/css">
	.st0{display:none;}
	.st1{display:inline;}
</style>
<g class="st0">
	<path class="st1" d="M45,297.3c0,12.7-7,20.6-18.3,20.6c-11.4,0-18.4-7.9-18.4-20.6c0-12.7,7-20.6,18.3-20.6
		C38,276.7,45,284.5,45,297.3z M15.2,297.3c0,9.1,4.4,14.7,11.4,14.7c7.1,0,11.4-5.6,11.4-14.7c0-9.1-4.4-14.7-11.4-14.7
		S15.2,288.2,15.2,297.3z"/>
	<path class="st1" d="M72.2,297.6h-6.1c0-3.4-2-5-5.4-5c-2.9,0-4.7,1.3-4.7,3.3c0,2.4,1.9,2.9,6.4,4.1c5.2,1.3,10.7,2.6,10.7,9.3
		c0,5.1-4.6,8.6-11.8,8.6c-7.6,0-12.2-3.4-12.2-10.1h6.4c0,3.4,2.1,5.4,5.9,5.4c3.2,0,5.1-1.4,5.1-3.5c0-2.9-2.2-3.4-7.1-4.7
		c-4.7-1.2-9.7-2.2-9.7-8.6c0-5,4.4-8.4,11.1-8.4C67.9,288,72.1,291.3,72.2,297.6z"/>
	<path class="st1" d="M79.3,317.1v-39.6h6.3v39.6H79.3z"/>
	<path class="st1" d="M119.6,302.9c0,9.2-5.3,14.9-13.9,14.9s-13.9-5.8-13.9-14.9s5.4-14.9,14-14.9S119.6,293.8,119.6,302.9z
		 M98.5,302.9c0,6.1,2.8,9.9,7.3,9.9s7.3-3.8,7.3-9.9s-2.8-9.9-7.3-9.9S98.5,296.8,98.5,302.9z"/>
	<path class="st1" d="M139.4,317.1v-39.6h6.7v39.6H139.4z"/>
	<path class="st1" d="M179.9,299.8v17.3h-6.3v-16.8c0-5.1-2.2-7.1-5.7-7.1c-3.6,0-6.4,2.7-6.4,8.1V317H155v-28.2h6v3.7h0.1
		c1.8-2.6,4.7-4.3,8.4-4.3C176,288.2,179.9,292,179.9,299.8z"/>
	<path class="st1" d="M200.6,311.9v4.9c-0.9,0.3-2.4,0.5-3.6,0.5c-5.9,0-8.6-2.5-8.6-8.7v-14.9h-4.7v-4.8h4.7v-7.1h6.3v7.1h5.5v4.8
		h-5.5v14.1c0,3.2,1.1,4.4,3.8,4.4C199.3,312.2,200.1,312.1,200.6,311.9z"/>
	<path class="st1" d="M223.5,308.6h6.5c-1.1,5.1-5.6,9.3-13,9.3c-8.6,0-13.7-6.2-13.7-15.3c0-8.3,5-14.6,13.6-14.6
		c6.4,0,11.1,3.7,12.7,9.6c0.6,1.8,0.8,3.9,0.8,6.6h-20.7c0.2,6.4,3.4,9,7.4,9C220.6,313.2,222.9,311.3,223.5,308.6z M209.7,300.1
		H224c-0.4-4.9-3.3-7.4-7.1-7.4C213,292.7,210.2,295.2,209.7,300.1z"/>
	<path class="st1" d="M252.8,288.7v5.6c-0.8-0.2-1.5-0.2-2.2-0.2c-5.1,0-7.8,3.2-7.8,9.1V317h-6.3v-28.2h5.9v4.2h0.1
		c1.9-3.1,4.6-4.6,8.1-4.6C251.2,288.4,252.1,288.5,252.8,288.7z"/>
	<path class="st1" d="M282.2,299.8v17.3h-6.3v-16.8c0-5.1-2.2-7.1-5.7-7.1c-3.6,0-6.4,2.7-6.4,8.1V317h-6.3v-28.2h6v3.7h0.1
		c1.8-2.6,4.7-4.3,8.4-4.3C278.4,288.2,282.2,292,282.2,299.8z"/>
	<path class="st1" d="M312.3,299.1v10.6c0,3.3,0.3,5.7,0.7,7.4h-5.7c-0.3-1.2-0.4-2.6-0.4-3.9h-0.1c-2.1,3-5.2,4.6-9.5,4.6
		c-5.9,0-9.6-3.6-9.6-8.4c0-4.6,2.7-7.6,10.8-8.9c2.3-0.4,5.6-0.7,7.6-0.8v-1.1c0-4.2-2.3-5.8-5.5-5.8c-3.5,0-5.4,1.9-5.6,4.9h-6.2
		c0.3-5.3,4.2-9.6,11.8-9.6C308.1,288,312.3,291.7,312.3,299.1z M306.1,303.7c-1.9,0.1-4.6,0.4-6.5,0.7c-4.1,0.7-5.6,1.9-5.6,4.4
		s1.8,4.2,5,4.2c1.9,0,3.8-0.6,5.1-1.9c1.5-1.6,1.9-3.1,1.9-6.1v-1.3H306.1z"/>
	<path class="st1" d="M341.2,297.6h-6.1c0-3.4-2-5-5.4-5c-2.9,0-4.7,1.3-4.7,3.3c0,2.4,1.9,2.9,6.4,4.1c5.2,1.3,10.7,2.6,10.7,9.3
		c0,5.1-4.6,8.6-11.8,8.6c-7.6,0-12.2-3.4-12.2-10.1h6.4c0,3.4,2.1,5.4,5.9,5.4c3.2,0,5.1-1.4,5.1-3.5c0-2.9-2.2-3.4-7.1-4.7
		c-4.7-1.2-9.7-2.2-9.7-8.6c0-5,4.4-8.4,11.1-8.4C336.9,288,341.2,291.3,341.2,297.6z"/>
	<path class="st1" d="M354.6,318.2c0,6.8-3.7,9.4-8.9,9.4c-1.2,0-2.2-0.2-3.2-0.4v-4.7c0.5,0.1,1,0.2,1.6,0.2c2.7,0,4.2-1.3,4.2-5.3
		v-28.6h6.3V318.2z M348.3,283.5v-6h6.3v6.1h-6.3V283.5z"/>
	<path class="st1" d="M388.3,302.9c0,9.2-5.3,14.9-13.9,14.9s-13.9-5.8-13.9-14.9s5.4-14.9,13.9-14.9S388.3,293.8,388.3,302.9z
		 M367.2,302.9c0,6.1,2.8,9.9,7.3,9.9s7.3-3.8,7.3-9.9s-2.8-9.9-7.3-9.9S367.2,296.8,367.2,302.9z"/>
	<path class="st1" d="M418.8,299.8v17.3h-6.3v-16.8c0-5.1-2.2-7.1-5.7-7.1c-3.6,0-6.4,2.7-6.4,8.1V317h-6.3v-28.2h6v3.7h0.1
		c1.8-2.6,4.7-4.3,8.4-4.3C414.9,288.2,418.8,292,418.8,299.8z"/>
	<path class="st1" d="M448.8,299.1v10.6c0,3.3,0.3,5.7,0.7,7.4h-5.7c-0.3-1.2-0.4-2.6-0.4-3.9h-0.1c-2.1,3-5.2,4.6-9.5,4.6
		c-5.9,0-9.6-3.6-9.6-8.4c0-4.6,2.7-7.6,10.8-8.9c2.3-0.4,5.6-0.7,7.6-0.8v-1.1c0-4.2-2.3-5.8-5.5-5.8c-3.5,0-5.4,1.9-5.6,4.9h-6.2
		c0.3-5.3,4.2-9.6,11.8-9.6C444.6,288,448.8,291.7,448.8,299.1z M442.7,303.7c-1.9,0.1-4.6,0.4-6.5,0.7c-4.1,0.7-5.6,1.9-5.6,4.4
		s1.8,4.2,5,4.2c1.9,0,3.8-0.6,5.1-1.9c1.5-1.6,1.9-3.1,1.9-6.1v-1.3H442.7z"/>
	<path class="st1" d="M456.6,317.1v-39.6h6.3v39.6H456.6z"/>
	<path class="st1" d="M489.2,308.6h6.5c-1.1,5.1-5.6,9.3-13,9.3c-8.6,0-13.7-6.2-13.7-15.3c0-8.3,5-14.6,13.6-14.6
		c6.4,0,11.1,3.7,12.7,9.6c0.6,1.8,0.8,3.9,0.8,6.6h-20.7c0.2,6.4,3.4,9,7.4,9C486.4,313.2,488.7,311.3,489.2,308.6z M475.5,300.1
		h14.3c-0.4-4.9-3.3-7.4-7.1-7.4C478.8,292.7,476,295.2,475.5,300.1z"/>
	<path class="st1" d="M531.1,283.3v33.8h-6.6v-33.8h-13v-5.8h32.6v5.8H531.1z"/>
	<path class="st1" d="M561.2,308.6h6.5c-1.1,5.1-5.6,9.3-13,9.3c-8.6,0-13.7-6.2-13.7-15.3c0-8.3,5-14.6,13.6-14.6
		c6.4,0,11.1,3.7,12.7,9.6c0.6,1.8,0.8,3.9,0.8,6.6h-20.7c0.2,6.4,3.4,9,7.4,9C558.3,313.2,560.6,311.3,561.2,308.6z M547.4,300.1
		h14.3c-0.4-4.9-3.3-7.4-7.1-7.4C550.7,292.7,547.9,295.2,547.4,300.1z"/>
	<path class="st1" d="M596.3,299.1v10.6c0,3.3,0.3,5.7,0.7,7.4h-5.7c-0.3-1.2-0.4-2.6-0.4-3.9h-0.1c-2.1,3-5.2,4.6-9.5,4.6
		c-5.9,0-9.6-3.6-9.6-8.4c0-4.6,2.7-7.6,10.8-8.9c2.3-0.4,5.6-0.7,7.6-0.8v-1.1c0-4.2-2.3-5.8-5.5-5.8c-3.5,0-5.4,1.9-5.6,4.9h-6.2
		c0.3-5.3,4.2-9.6,11.8-9.6C592.2,288,596.3,291.7,596.3,299.1z M590.2,303.7c-1.9,0.1-4.6,0.4-6.5,0.7c-4.1,0.7-5.6,1.9-5.6,4.4
		s1.8,4.2,5,4.2c1.9,0,3.8-0.6,5.1-1.9c1.5-1.6,1.9-3.1,1.9-6.1L590.2,303.7L590.2,303.7z"/>
	<path class="st1" d="M616.8,311.9v4.9c-0.9,0.3-2.4,0.5-3.6,0.5c-5.9,0-8.6-2.5-8.6-8.7v-14.9H600v-4.8h4.7v-7.1h6.3v7.1h5.5v4.8
		H611v14.1c0,3.2,1.1,4.4,3.8,4.4C615.6,312.2,616.4,312.1,616.8,311.9z"/>
	<path class="st1" d="M639.7,308.6h6.5c-1.1,5.1-5.6,9.3-13,9.3c-8.6,0-13.7-6.2-13.7-15.3c0-8.3,5-14.6,13.6-14.6
		c6.4,0,11.1,3.7,12.7,9.6c0.6,1.8,0.8,3.9,0.8,6.6h-20.7c0.2,6.4,3.4,9,7.4,9C636.8,313.2,639.2,311.3,639.7,308.6z M626,300.1
		h14.3c-0.4-4.9-3.3-7.4-7.1-7.4C629.3,292.7,626.5,295.2,626,300.1z"/>
	<path class="st1" d="M668.9,288.7v5.6c-0.8-0.2-1.5-0.2-2.2-0.2c-5.1,0-7.8,3.2-7.8,9.1V317h-6.3v-28.2h5.9v4.2h0.1
		c1.9-3.1,4.6-4.6,8.1-4.6C667.2,288.4,668.1,288.5,668.9,288.7z"/>
	<path class="st1" d="M681.6,286.5v2.3h5.4v4.8h-5.4V317h-6.3v-23.3h-4.8v-4.8h4.8v-3c0-5.8,3-8.7,8.6-8.7c1.2,0,2.5,0.2,3.3,0.4
		v4.7c-0.4-0.1-1-0.2-1.6-0.2C683,281.9,681.6,283.2,681.6,286.5z"/>
	<path class="st1" d="M709.3,308.6h6.5c-1.1,5.1-5.6,9.3-13,9.3c-8.6,0-13.7-6.2-13.7-15.3c0-8.3,5-14.6,13.6-14.6
		c6.4,0,11.1,3.7,12.7,9.6c0.6,1.8,0.8,3.9,0.8,6.6h-20.7c0.2,6.4,3.4,9,7.4,9C706.4,313.2,708.8,311.3,709.3,308.6z M695.5,300.1
		h14.3c-0.4-4.9-3.3-7.4-7.1-7.4S696.1,295.2,695.5,300.1z"/>
	<path class="st1" d="M743.3,297.6h-6.1c0-3.4-2-5-5.4-5c-2.9,0-4.7,1.3-4.7,3.3c0,2.4,1.9,2.9,6.4,4.1c5.2,1.3,10.7,2.6,10.7,9.3
		c0,5.1-4.6,8.6-11.8,8.6c-7.6,0-12.2-3.4-12.2-10.1h6.4c0,3.4,2.1,5.4,5.9,5.4c3.2,0,5.1-1.4,5.1-3.5c0-2.9-2.2-3.4-7.1-4.7
		c-4.7-1.2-9.7-2.2-9.7-8.6c0-5,4.4-8.4,11.1-8.4C739,288,743.2,291.3,743.3,297.6z"/>
	<path class="st1" d="M763.7,311.9v4.9c-0.9,0.3-2.4,0.5-3.6,0.5c-5.9,0-8.6-2.5-8.6-8.7v-14.9h-4.7v-4.8h4.7v-7.1h6.3v7.1h5.5v4.8
		h-5.5v14.1c0,3.2,1.1,4.4,3.8,4.4C762.4,312.2,763.2,312.1,763.7,311.9z"/>
	<path class="st1" d="M769.2,283.5v-6h6.3v6.1h-6.3V283.5z M769.2,317.1v-28.3h6.3V317h-6.3V317.1z"/>
	<path class="st1" d="M789.1,317.1l-9.8-28.2h6.6l3.7,11.5c1.3,4.1,2.5,8.2,3.6,12.3h0.1c1.1-4.2,2.3-8.2,3.6-12.3l3.7-11.5h6.6
		l-9.8,28.2H789.1z"/>
	<path class="st1" d="M832.4,299.1v10.6c0,3.3,0.3,5.7,0.7,7.4h-5.7c-0.3-1.2-0.4-2.6-0.4-3.9h-0.1c-2.1,3-5.2,4.6-9.5,4.6
		c-5.9,0-9.6-3.6-9.6-8.4c0-4.6,2.7-7.6,10.8-8.9c2.3-0.4,5.6-0.7,7.6-0.8v-1.1c0-4.2-2.3-5.8-5.5-5.8c-3.5,0-5.4,1.9-5.6,4.9H809
		c0.3-5.3,4.2-9.6,11.8-9.6C828.2,288,832.4,291.7,832.4,299.1z M826.3,303.7c-1.9,0.1-4.6,0.4-6.5,0.7c-4.1,0.7-5.6,1.9-5.6,4.4
		s1.8,4.2,5,4.2c1.9,0,3.8-0.6,5.1-1.9c1.5-1.6,1.9-3.1,1.9-6.1L826.3,303.7L826.3,303.7z"/>
	<path class="st1" d="M840.2,317.1v-39.6h6.3v39.6H840.2z"/>
	<path class="st1" d="M892,289.3c0,6.7-4.1,9.7-9.9,13.1c-7.2,4.2-8.6,6.2-8.7,9.2h19.5v5.4h-27c-0.1-0.4-0.1-0.8-0.1-1.2
		c0-7.2,1.9-11.5,10.9-16.7c5.6-3.2,8.4-5.3,8.4-9.6c0-3.2-2.2-5.3-5.7-5.3c-4.3,0-6.3,2.4-6.5,6.6h-6.6c0.2-7.8,5.2-12.2,13.1-12.2
		C887.1,278.8,892,282.9,892,289.3z"/>
	<path class="st1" d="M927.1,298.3c0,12.6-5.1,19.6-14.2,19.6c-9.2,0-14.3-7-14.3-19.6c0-12.6,5.1-19.6,14.3-19.6
		C922.1,278.8,927.1,285.8,927.1,298.3z M905.5,298.3c0,9.1,2.6,14.1,7.4,14.1c4.8,0,7.4-5,7.4-14.1c0-9-2.6-13.9-7.4-13.9
		S905.5,289.3,905.5,298.3z"/>
	<path class="st1" d="M942.2,317.1v-26.4h-8.7v-4.8c6.1,0,8.8-1.8,9.4-6.3h5.8v37.5H942.2z"/>
	<path class="st1" d="M986.2,289c0,4.1-2.6,7.2-6.7,8.5v0.1c4.7,1.3,7.4,4.7,7.4,9.3c0,6.7-5.5,10.9-13.7,10.9s-13.7-4.2-13.7-10.9
		c0-4.6,2.8-7.9,7.4-9.3v-0.1c-4.1-1.3-6.7-4.4-6.7-8.5c0-6.2,5.4-10.3,12.9-10.3C980.8,278.8,986.2,282.9,986.2,289z M966.3,306.4
		c0,3.7,2.7,5.9,7.1,5.9c4.3,0,7.1-2.3,7.1-5.9c0-3.5-2.8-5.9-7.1-5.9C969,300.4,966.3,302.9,966.3,306.4z M966.8,289.5
		c0,3.4,2.5,5.6,6.6,5.6c4,0,6.5-2.2,6.5-5.6c0-3.2-2.6-5.3-6.5-5.3C969.4,284.2,966.8,286.3,966.8,289.5z"/>
</g>
<g>
	<path d="M39.2,284.8c1.2,1.8,2,3.8,2.2,6.1h-3.5c-0.5-2.7-1.6-4.7-3.5-6.2c-1.9-1.5-4.3-2.2-7.3-2.2c-2.6,0-4.9,0.6-6.8,2
		c-1.9,1.3-3.4,3.2-4.4,5.6c-1,2.4-1.5,5.3-1.5,8.6s0.5,6.1,1.5,8.5c1,2.4,2.4,4.2,4.2,5.5c1.8,1.3,4,1.9,6.6,1.9
		c3.5,0,6.3-1.1,8.5-3.3c2.1-2.2,3.2-5.7,3.2-10.5H27.3v-3.1h14.1V317h-3.2v-5.7h-0.1c-0.9,1.9-2.5,3.4-4.7,4.6
		c-2.2,1.1-4.6,1.7-7.3,1.7c-3.2,0-5.9-0.8-8.2-2.3c-2.3-1.5-4.1-3.7-5.4-6.6c-1.3-2.9-1.9-6.2-1.9-10.2c0-4,0.7-7.4,2-10.3
		c1.3-2.9,3.2-5.1,5.7-6.7s5.4-2.3,8.7-2.3c2.7,0,5.1,0.5,7.2,1.4C36.3,281.7,37.9,283,39.2,284.8z"/>
	<path d="M51.2,280h3.4v37h-3.4V280z"/>
	<path d="M94.8,298.5c0,5.9-1.6,10.5-4.9,13.7c-3.3,3.2-8,4.8-14,4.8H65.1v-37h10.8c6,0,10.7,1.6,14,4.8
		C93.2,288,94.8,292.6,94.8,298.5z M75.9,313.9c4.9,0,8.7-1.3,11.4-4c2.7-2.7,4-6.5,4-11.4s-1.3-8.8-4-11.4c-2.7-2.7-6.4-4-11.4-4
		h-7.4v30.9H75.9z"/>
	<path d="M102.4,280h3.4v37h-3.4V280z"/>
	<path d="M127.3,280h3.2v4.6h-3.2V280z M127.3,290.6h3.2V317h-3.2V290.6z"/>
	<path d="M160.1,300.9V317h-3.2v-15.9c0-3-0.6-5.1-1.7-6.4c-1.1-1.3-2.8-1.9-5-1.9c-1.4,0-2.7,0.3-3.8,1s-2.1,1.6-2.8,2.9
		s-1,2.8-1,4.6V317h-3.2v-26.4h3.2v3.6h0.1c0.8-1.3,2-2.3,3.4-3c1.4-0.7,3-1.1,4.8-1.1c3.1,0,5.4,0.9,7,2.8
		C159.3,294.6,160.1,297.3,160.1,300.9z"/>
	<path d="M162.8,290.6h3.5l4.2,11.4l4.3,11.9h0.1l4.3-11.9l4.2-11.4h3.5l-9.9,26.4h-4.2L162.8,290.6z"/>
	<path d="M208.6,309.1h3.3c-0.5,2.4-1.6,4.5-3.6,6.1c-1.9,1.6-4.5,2.4-7.6,2.4c-3.7,0-6.7-1.3-8.8-3.9c-2.1-2.6-3.2-6.1-3.2-10.5
		c0-2.6,0.5-4.9,1.4-6.9c1-2,2.3-3.6,4.1-4.8c1.8-1.1,3.9-1.7,6.3-1.7c2.9,0,5.4,0.8,7.4,2.5c2,1.7,3.2,4,3.8,6.9
		c0.3,1.2,0.4,2.9,0.4,5.1H192c0.1,3.4,0.9,6,2.5,7.8s3.7,2.7,6.2,2.7c2.1,0,3.8-0.5,5.2-1.6S208.2,310.9,208.6,309.1z M192,301.8
		h17c-0.2-2.9-1-5.1-2.5-6.7s-3.5-2.4-5.9-2.4s-4.4,0.8-6,2.4C193,296.7,192.2,299,192,301.8z"/>
	<path d="M236.7,299h-3.2c0-2-0.6-3.5-1.8-4.6c-1.2-1.1-2.8-1.6-4.9-1.6c-1.8,0-3.2,0.4-4.3,1.2c-1.1,0.8-1.6,1.9-1.6,3.2
		c0,1,0.2,1.8,0.7,2.4s1.1,1,1.9,1.2c0.8,0.3,2.2,0.6,4.1,1.1c2.3,0.5,4.1,1,5.4,1.5s2.4,1.2,3.3,2.3c0.9,1.1,1.4,2.5,1.4,4.4
		c0,2.3-0.9,4.1-2.7,5.6c-1.8,1.4-4.2,2.1-7.2,2.1c-3.3,0-5.9-0.8-7.8-2.5s-2.8-4-2.9-7.1h3.3c0,2.1,0.6,3.8,1.9,5
		c1.3,1.2,3.1,1.8,5.5,1.8c2,0,3.6-0.4,4.8-1.3c1.2-0.9,1.8-2,1.8-3.4c0-1.1-0.3-2-0.8-2.7c-0.5-0.6-1.3-1.1-2.3-1.5
		c-1-0.3-2.6-0.8-4.8-1.3c-2-0.5-3.6-0.9-4.8-1.4c-1.1-0.4-2.1-1.1-2.9-2.1c-0.8-1-1.2-2.3-1.2-4c0-2.2,0.9-4,2.6-5.4
		c1.7-1.4,3.9-2.1,6.6-2.1c3.1,0,5.5,0.8,7.3,2.4C235.8,293.9,236.7,296.1,236.7,299z"/>
	<path d="M253.9,316.9c-0.8,0.2-1.6,0.3-2.4,0.3c-2.3,0-3.9-0.6-4.9-1.7s-1.5-2.9-1.5-5.5v-16.7h-4.7v-2.7h4.7v-6.1h3.2v6.1h5.4v2.7
		h-5.4V310c0,1.6,0.3,2.7,0.9,3.4c0.6,0.7,1.6,1,2.9,1c0.7,0,1.3-0.1,1.8-0.2V316.9z"/>
	<path d="M327.2,284.8c1.2,1.8,2,3.8,2.2,6.1h-3.5c-0.5-2.7-1.6-4.7-3.5-6.2c-1.9-1.5-4.3-2.2-7.3-2.2c-2.6,0-4.9,0.6-6.8,2
		c-1.9,1.3-3.4,3.2-4.4,5.6c-1,2.4-1.5,5.3-1.5,8.6s0.5,6.1,1.5,8.5c1,2.4,2.4,4.2,4.2,5.5c1.8,1.3,4,1.9,6.6,1.9
		c3.5,0,6.3-1.1,8.5-3.3c2.1-2.2,3.2-5.7,3.2-10.5h-10.9v-3.1h14.1V317h-3.2v-5.7h-0.1c-0.9,1.9-2.5,3.4-4.7,4.6
		c-2.2,1.1-4.6,1.7-7.3,1.7c-3.2,0-5.9-0.8-8.2-2.3c-2.3-1.5-4.1-3.7-5.4-6.6c-1.3-2.9-1.9-6.2-1.9-10.2c0-4,0.7-7.4,2-10.3
		c1.3-2.9,3.2-5.1,5.7-6.7s5.4-2.3,8.7-2.3c2.7,0,5.1,0.5,7.2,1.4C324.3,281.7,325.9,283,327.2,284.8z"/>
	<path d="M339.2,280h3.4v37h-3.4V280z"/>
	<path d="M382.8,298.5c0,5.9-1.6,10.5-4.9,13.7c-3.3,3.2-8,4.8-14,4.8h-10.8v-37h10.8c6,0,10.7,1.6,14,4.8
		C381.2,288,382.8,292.6,382.8,298.5z M363.9,313.9c4.9,0,8.7-1.3,11.4-4c2.7-2.7,4-6.5,4-11.4s-1.3-8.8-4-11.4
		c-2.7-2.7-6.4-4-11.4-4h-7.4v30.9H363.9z"/>
	<path d="M390.4,280h3.4v37h-3.4V280z"/>
	<path d="M415.3,280h3.2v4.6h-3.2V280z M415.3,290.6h3.2V317h-3.2V290.6z"/>
	<path d="M448.1,300.9V317h-3.2v-15.9c0-3-0.6-5.1-1.7-6.4c-1.1-1.3-2.8-1.9-5-1.9c-1.4,0-2.7,0.3-3.8,1s-2.1,1.6-2.8,2.9
		s-1,2.8-1,4.6V317h-3.2v-26.4h3.2v3.6h0.1c0.8-1.3,2-2.3,3.4-3c1.4-0.7,3-1.1,4.8-1.1c3.1,0,5.4,0.9,7,2.8S448.1,297.3,448.1,300.9
		z"/>
	<path d="M450.8,290.6h3.5l4.2,11.4l4.3,11.9h0.1l4.3-11.9l4.2-11.4h3.5l-9.9,26.4h-4.2L450.8,290.6z"/>
	<path d="M496.6,309.1h3.3c-0.5,2.4-1.6,4.5-3.6,6.1c-1.9,1.6-4.5,2.4-7.6,2.4c-3.7,0-6.7-1.3-8.8-3.9c-2.1-2.6-3.2-6.1-3.2-10.5
		c0-2.6,0.5-4.9,1.4-6.9c1-2,2.3-3.6,4.1-4.8s3.9-1.7,6.3-1.7c2.9,0,5.4,0.8,7.4,2.5s3.2,4,3.8,6.9c0.3,1.2,0.4,2.9,0.4,5.1H480
		c0.1,3.4,0.9,6,2.5,7.8s3.7,2.7,6.2,2.7c2.1,0,3.8-0.5,5.2-1.6S496.2,310.9,496.6,309.1z M480,301.8h17c-0.2-2.9-1-5.1-2.5-6.7
		s-3.5-2.4-5.9-2.4s-4.4,0.8-6,2.4C481,296.7,480.2,299,480,301.8z"/>
	<path d="M524.7,299h-3.2c0-2-0.6-3.5-1.8-4.6c-1.2-1.1-2.8-1.6-4.9-1.6c-1.8,0-3.3,0.4-4.3,1.2s-1.6,1.9-1.6,3.2
		c0,1,0.2,1.8,0.7,2.4s1.1,1,1.9,1.2c0.8,0.3,2.2,0.6,4.1,1.1c2.3,0.5,4.1,1,5.4,1.5c1.3,0.5,2.4,1.2,3.3,2.3s1.4,2.5,1.4,4.4
		c0,2.3-0.9,4.1-2.7,5.6c-1.8,1.4-4.2,2.1-7.2,2.1c-3.3,0-5.9-0.8-7.8-2.5s-2.8-4-2.9-7.1h3.3c0,2.1,0.6,3.8,1.9,5
		c1.3,1.2,3.1,1.8,5.5,1.8c2,0,3.6-0.4,4.8-1.3c1.2-0.9,1.8-2,1.8-3.4c0-1.1-0.3-2-0.8-2.7c-0.5-0.6-1.3-1.1-2.3-1.5
		c-1-0.3-2.6-0.8-4.8-1.3c-2-0.5-3.6-0.9-4.8-1.4c-1.1-0.4-2.1-1.1-2.9-2.1c-0.8-1-1.2-2.3-1.2-4c0-2.2,0.9-4,2.6-5.4
		c1.7-1.4,3.9-2.1,6.6-2.1c3.1,0,5.5,0.8,7.3,2.4C523.8,293.9,524.7,296.1,524.7,299z"/>
	<path d="M541.9,316.9c-0.8,0.2-1.6,0.3-2.4,0.3c-2.3,0-3.9-0.6-4.9-1.7s-1.5-2.9-1.5-5.5v-16.7h-4.7v-2.7h4.7v-6.1h3.2v6.1h5.4v2.7
		h-5.4V310c0,1.6,0.3,2.7,0.9,3.4s1.6,1,2.9,1c0.7,0,1.3-0.1,1.8-0.2V316.9z"/>
	<path d="M615.2,284.8c1.2,1.8,2,3.8,2.2,6.1h-3.5c-0.5-2.7-1.6-4.7-3.5-6.2c-1.9-1.5-4.3-2.2-7.3-2.2c-2.6,0-4.9,0.6-6.8,2
		c-1.9,1.3-3.4,3.2-4.4,5.6c-1,2.4-1.5,5.3-1.5,8.6s0.5,6.1,1.5,8.5c1,2.4,2.4,4.2,4.2,5.5c1.8,1.3,4,1.9,6.6,1.9
		c3.5,0,6.3-1.1,8.5-3.3c2.1-2.2,3.2-5.7,3.2-10.5h-10.9v-3.1h14.1V317h-3.2v-5.7h-0.1c-0.9,1.9-2.5,3.4-4.7,4.6
		c-2.2,1.1-4.6,1.7-7.3,1.7c-3.2,0-5.9-0.8-8.2-2.3c-2.3-1.5-4.1-3.7-5.4-6.6s-1.9-6.2-1.9-10.2c0-4,0.7-7.4,2-10.3
		c1.3-2.9,3.2-5.1,5.7-6.7s5.4-2.3,8.7-2.3c2.7,0,5.1,0.5,7.2,1.4C612.3,281.7,613.9,283,615.2,284.8z"/>
	<path d="M627.2,280h3.4v37h-3.4V280z"/>
	<path d="M670.8,298.5c0,5.9-1.6,10.5-4.9,13.7c-3.3,3.2-8,4.8-14,4.8h-10.8v-37h10.8c6,0,10.7,1.6,14,4.8
		C669.2,288,670.8,292.6,670.8,298.5z M651.9,313.9c4.9,0,8.7-1.3,11.4-4c2.7-2.7,4-6.5,4-11.4s-1.3-8.8-4-11.4
		c-2.7-2.7-6.4-4-11.4-4h-7.4v30.9H651.9z"/>
	<path d="M678.4,280h3.4v37h-3.4V280z"/>
	<path d="M703.3,280h3.2v4.6h-3.2V280z M703.3,290.6h3.2V317h-3.2V290.6z"/>
	<path d="M736.1,300.9V317h-3.2v-15.9c0-3-0.6-5.1-1.7-6.4c-1.1-1.3-2.8-1.9-5-1.9c-1.4,0-2.7,0.3-3.8,1s-2.1,1.6-2.8,2.9
		s-1,2.8-1,4.6V317h-3.2v-26.4h3.2v3.6h0.1c0.8-1.3,2-2.3,3.4-3c1.4-0.7,3-1.1,4.8-1.1c3.1,0,5.4,0.9,7,2.8S736.1,297.3,736.1,300.9
		z"/>
	<path d="M738.8,290.6h3.5l4.2,11.4l4.3,11.9h0.1l4.3-11.9l4.2-11.4h3.5l-9.9,26.4h-4.2L738.8,290.6z"/>
	<path d="M784.6,309.1h3.3c-0.5,2.4-1.6,4.5-3.6,6.1c-1.9,1.6-4.5,2.4-7.6,2.4c-3.7,0-6.7-1.3-8.8-3.9c-2.1-2.6-3.2-6.1-3.2-10.5
		c0-2.6,0.5-4.9,1.4-6.9c1-2,2.3-3.6,4.1-4.8s3.9-1.7,6.3-1.7c2.9,0,5.4,0.8,7.4,2.5s3.2,4,3.8,6.9c0.3,1.2,0.4,2.9,0.4,5.1H768
		c0.1,3.4,0.9,6,2.5,7.8s3.7,2.7,6.2,2.7c2.1,0,3.8-0.5,5.2-1.6S784.2,310.9,784.6,309.1z M768,301.8h17c-0.2-2.9-1-5.1-2.5-6.7
		s-3.5-2.4-5.9-2.4s-4.4,0.8-6,2.4C769,296.7,768.2,299,768,301.8z"/>
	<path d="M812.7,299h-3.2c0-2-0.6-3.5-1.8-4.6c-1.2-1.1-2.8-1.6-4.9-1.6c-1.8,0-3.3,0.4-4.3,1.2s-1.6,1.9-1.6,3.2
		c0,1,0.2,1.8,0.7,2.4s1.1,1,1.9,1.2c0.8,0.3,2.2,0.6,4.1,1.1c2.3,0.5,4.1,1,5.4,1.5c1.3,0.5,2.4,1.2,3.3,2.3s1.4,2.5,1.4,4.4
		c0,2.3-0.9,4.1-2.7,5.6c-1.8,1.4-4.2,2.1-7.2,2.1c-3.3,0-5.9-0.8-7.8-2.5s-2.8-4-2.9-7.1h3.3c0,2.1,0.6,3.8,1.9,5
		c1.3,1.2,3.1,1.8,5.5,1.8c2,0,3.6-0.4,4.8-1.3c1.2-0.9,1.8-2,1.8-3.4c0-1.1-0.3-2-0.8-2.7c-0.5-0.6-1.3-1.1-2.3-1.5
		c-1-0.3-2.6-0.8-4.8-1.3c-2-0.5-3.6-0.9-4.8-1.4c-1.1-0.4-2.1-1.1-2.9-2.1c-0.8-1-1.2-2.3-1.2-4c0-2.2,0.9-4,2.6-5.4
		c1.7-1.4,3.9-2.1,6.6-2.1c3.1,0,5.5,0.8,7.3,2.4C811.8,293.9,812.7,296.1,812.7,299z"/>
	<path d="M829.9,316.9c-0.8,0.2-1.6,0.3-2.4,0.3c-2.3,0-3.9-0.6-4.9-1.7s-1.5-2.9-1.5-5.5v-16.7h-4.7v-2.7h4.7v-6.1h3.2v6.1h5.4v2.7
		h-5.4V310c0,1.6,0.3,2.7,0.9,3.4s1.6,1,2.9,1c0.7,0,1.3-0.1,1.8-0.2V316.9z"/>
	<path d="M903.2,284.8c1.2,1.8,2,3.8,2.2,6.1h-3.5c-0.5-2.7-1.6-4.7-3.5-6.2c-1.9-1.5-4.3-2.2-7.3-2.2c-2.6,0-4.9,0.6-6.8,2
		c-1.9,1.3-3.4,3.2-4.4,5.6c-1,2.4-1.5,5.3-1.5,8.6s0.5,6.1,1.5,8.5c1,2.4,2.4,4.2,4.2,5.5c1.8,1.3,4,1.9,6.6,1.9
		c3.5,0,6.3-1.1,8.5-3.3c2.1-2.2,3.2-5.7,3.2-10.5h-10.9v-3.1h14.1V317h-3.2v-5.7h-0.1c-0.9,1.9-2.5,3.4-4.7,4.6
		c-2.2,1.1-4.6,1.7-7.3,1.7c-3.2,0-5.9-0.8-8.2-2.3c-2.3-1.5-4.1-3.7-5.4-6.6s-1.9-6.2-1.9-10.2c0-4,0.7-7.4,2-10.3
		c1.3-2.9,3.2-5.1,5.7-6.7s5.4-2.3,8.7-2.3c2.7,0,5.1,0.5,7.2,1.4C900.3,281.7,901.9,283,903.2,284.8z"/>
	<path d="M915.2,280h3.4v37h-3.4V280z"/>
	<path d="M958.8,298.5c0,5.9-1.6,10.5-4.9,13.7c-3.3,3.2-8,4.8-14,4.8h-10.8v-37h10.8c6,0,10.7,1.6,14,4.8
		C957.2,288,958.8,292.6,958.8,298.5z M939.9,313.9c4.9,0,8.7-1.3,11.4-4c2.7-2.7,4-6.5,4-11.4s-1.3-8.8-4-11.4
		c-2.7-2.7-6.4-4-11.4-4h-7.4v30.9H939.9z"/>
	<path d="M966.4,280h3.4v37h-3.4V280z"/>
	<path d="M991.3,280h3.2v4.6h-3.2V280z M991.3,290.6h3.2V317h-3.2V290.6z"/>
	<path d="M1024.1,300.9V317h-3.2v-15.9c0-3-0.6-5.1-1.7-6.4c-1.1-1.3-2.8-1.9-5-1.9c-1.4,0-2.7,0.3-3.8,1s-2.1,1.6-2.8,2.9
		s-1,2.8-1,4.6V317h-3.2v-26.4h3.2v3.6h0.1c0.8-1.3,2-2.3,3.4-3c1.4-0.7,3-1.1,4.8-1.1c3.1,0,5.4,0.9,7,2.8
		S1024.1,297.3,1024.1,300.9z"/>
	<path d="M1026.8,290.6h3.5l4.2,11.4l4.3,11.9h0.1l4.3-11.9l4.2-11.4h3.5l-9.9,26.4h-4.2L1026.8,290.6z"/>
	<path d="M1072.6,309.1h3.3c-0.5,2.4-1.6,4.5-3.6,6.1c-1.9,1.6-4.5,2.4-7.6,2.4c-3.7,0-6.7-1.3-8.8-3.9c-2.2-2.6-3.2-6.1-3.2-10.5
		c0-2.6,0.5-4.9,1.4-6.9c1-2,2.3-3.6,4.1-4.8s3.9-1.7,6.3-1.7c2.9,0,5.4,0.8,7.4,2.5s3.2,4,3.8,6.9c0.3,1.2,0.4,2.9,0.4,5.1H1056
		c0.1,3.4,0.9,6,2.5,7.8s3.7,2.7,6.2,2.7c2.1,0,3.8-0.5,5.2-1.6S1072.2,310.9,1072.6,309.1z M1056,301.8h17c-0.2-2.9-1-5.1-2.5-6.7
		s-3.5-2.4-5.9-2.4s-4.4,0.8-6,2.4C1057,296.7,1056.1,299,1056,301.8z"/>
	<path d="M1100.7,299h-3.2c0-2-0.6-3.5-1.8-4.6c-1.2-1.1-2.8-1.6-4.9-1.6c-1.8,0-3.2,0.4-4.3,1.2s-1.6,1.9-1.6,3.2
		c0,1,0.2,1.8,0.7,2.4s1.1,1,1.9,1.2c0.8,0.3,2.2,0.6,4.1,1.1c2.3,0.5,4.1,1,5.4,1.5c1.3,0.5,2.4,1.2,3.3,2.3s1.4,2.5,1.4,4.4
		c0,2.3-0.9,4.1-2.7,5.6c-1.8,1.4-4.2,2.1-7.2,2.1c-3.3,0-5.9-0.8-7.8-2.5s-2.8-4-2.9-7.1h3.3c0,2.1,0.6,3.8,1.9,5
		c1.3,1.2,3.1,1.8,5.5,1.8c2,0,3.6-0.4,4.8-1.3c1.2-0.9,1.8-2,1.8-3.4c0-1.1-0.3-2-0.8-2.7c-0.5-0.6-1.3-1.1-2.3-1.5
		c-1-0.3-2.6-0.8-4.8-1.3c-2-0.5-3.6-0.9-4.8-1.4c-1.1-0.4-2.1-1.1-2.9-2.1c-0.8-1-1.2-2.3-1.2-4c0-2.2,0.9-4,2.6-5.4
		c1.7-1.4,3.9-2.1,6.6-2.1c3.1,0,5.5,0.8,7.3,2.4C1099.8,293.9,1100.7,296.1,1100.7,299z"/>
	<path d="M1117.9,316.9c-0.8,0.2-1.6,0.3-2.4,0.3c-2.3,0-3.9-0.6-4.9-1.7s-1.5-2.9-1.5-5.5v-16.7h-4.7v-2.7h4.7v-6.1h3.2v6.1h5.4
		v2.7h-5.4V310c0,1.6,0.3,2.7,0.9,3.4s1.6,1,2.9,1c0.7,0,1.3-0.1,1.8-0.2V316.9z"/>
</g>
</svg>
