<svg xmlns="http://www.w3.org/2000/svg" xmlns:xlink="http://www.w3.org/1999/xlink" version="1.1" x="0px" y="0px" viewBox="0 0 144.083 180" enable-background="new 0 0 144.083 144" xml:space="preserve"><path d="M134.381,66.643l-6-27.554c-0.15-0.689-0.762-1.181-1.467-1.181h-8.424V26.462c0-0.828-0.672-1.5-1.5-1.5h-10.643  c-0.828,0-1.5,0.672-1.5,1.5v11.446H39.232V26.462c0-0.828-0.672-1.5-1.5-1.5H27.09c-0.828,0-1.5,0.672-1.5,1.5v11.446h-8.425  c-0.705,0-1.315,0.491-1.466,1.181l-6,27.554c-0.097,0.443,0.013,0.907,0.298,1.261c0.284,0.354,0.714,0.559,1.168,0.559h6.941  v49.879c0,0.828,0.672,1.5,1.5,1.5H47.18h15.448h18.824H96.5h27.973c0.828,0,1.5-0.672,1.5-1.5V68.462h6.941  c0.455,0,0.885-0.205,1.168-0.559C134.368,67.55,134.477,67.086,134.381,66.643z M107.848,27.962h7.643v9.946h-7.643V27.962z   M28.59,27.962h7.643v9.946H28.59V27.962z M45.68,116.841H21.106V68.462H45.68V116.841z M70.541,116.841h-7.602V97.813  c0-4.507,3.296-8.249,7.602-8.967V116.841z M81.141,116.841h-7.6V88.847c4.305,0.719,7.6,4.46,7.6,8.967V116.841z M95,116.841  H84.141V97.813c0-6.673-5.428-12.102-12.1-12.102c-6.673,0-12.102,5.429-12.102,12.102v19.027H48.68V73.879h7.649  c0.394,0,0.771-0.154,1.052-0.431l14.611-14.376l14.295,14.364c0.281,0.283,0.664,0.442,1.063,0.442H95V116.841z M95,70.879h-7.027  L73.067,55.899c-0.583-0.586-1.528-0.59-2.116-0.012L55.715,70.879H48.68v-2.322l23.408-23.033L95,68.547V70.879z M122.973,116.841  H98V68.462h24.973V116.841z M96.163,65.462l-23-23.111c-0.582-0.587-1.528-0.589-2.116-0.012l-23.5,23.123H13.026l5.348-24.554  h8.716h10.643h68.616h10.643h8.715l5.348,24.554H96.163z"/><path d="M27.477,89.795h12.332c0.828,0,1.5-0.672,1.5-1.5V75.962c0-0.828-0.672-1.5-1.5-1.5H27.477c-0.828,0-1.5,0.672-1.5,1.5  v12.333C25.977,89.123,26.648,89.795,27.477,89.795z M28.977,77.462h9.332v9.333h-9.332V77.462z"/><path d="M27.477,110.952h12.332c0.828,0,1.5-0.672,1.5-1.5V97.119c0-0.828-0.672-1.5-1.5-1.5H27.477c-0.828,0-1.5,0.672-1.5,1.5  v12.333C25.977,110.28,26.648,110.952,27.477,110.952z M28.977,98.619h9.332v9.333h-9.332V98.619z"/><path d="M104.272,89.795h12.332c0.828,0,1.5-0.672,1.5-1.5V75.962c0-0.828-0.672-1.5-1.5-1.5h-12.332c-0.828,0-1.5,0.672-1.5,1.5  v12.333C102.772,89.123,103.444,89.795,104.272,89.795z M105.772,77.462h9.332v9.333h-9.332V77.462z"/><path d="M104.272,110.952h12.332c0.828,0,1.5-0.672,1.5-1.5V97.119c0-0.828-0.672-1.5-1.5-1.5h-12.332c-0.828,0-1.5,0.672-1.5,1.5  v12.333C102.772,110.28,103.444,110.952,104.272,110.952z M105.772,98.619h9.332v9.333h-9.332V98.619z"/><text x="0" y="159" fill="#000000" font-size="5px" font-weight="bold" font-family="'Helvetica Neue', Helvetica, Arial-Unicode, Arial, Sans-serif">Created by Chanut is Industries</text><text x="0" y="164" fill="#000000" font-size="5px" font-weight="bold" font-family="'Helvetica Neue', Helvetica, Arial-Unicode, Arial, Sans-serif">from the Noun Project</text></svg>