<svg xmlns="http://www.w3.org/2000/svg" xmlns:xlink="http://www.w3.org/1999/xlink" xmlns:a="http://ns.adobe.com/AdobeSVGViewerExtensions/3.0/" version="1.1" x="0px" y="0px" viewBox="-52.046 -24.692 1024 1280" enable-background="new -52.046 -24.692 1024 1024" xml:space="preserve"><g display="none"><g display="inline"><path d="M497.456,943.818c0-36.451,0-72.901,0-109.352c0-63.357,0-126.715,0-190.072c0-23.716,0-47.432,0-71.147    c0-19.079-15.921-35-35-35c-44.726,0-89.452,0-134.178,0c-42.398,0-84.797,0-127.195,0c10.074,17.555,20.147,35.11,30.222,52.665    c11.04-22.736,22.08-45.473,33.12-68.209c25.419-52.351,50.839-104.701,76.259-157.052    c28.249-58.179,56.499-116.357,84.748-174.536c19.529-40.22,39.058-80.439,58.587-120.659c2.886-5.944,5.772-11.889,8.659-17.833    c-21.741-5.888-43.481-11.777-65.222-17.665c0,36.436,0,72.872,0,109.308c0,63.333,0,126.665,0,189.997    c0,23.707,0,47.413,0,71.119c0,19.079,15.921,35,35,35c44.804,0,89.607,0,134.412,0c42.473,0,84.944,0,127.417,0    c-10.074-17.555-20.147-35.11-30.222-52.665c-11.036,22.696-22.073,45.393-33.109,68.089    c-25.423,52.279-50.845,104.559-76.268,156.839c-28.276,58.148-56.553,116.297-84.829,174.446    c-19.599,40.304-39.198,80.607-58.796,120.912c-2.942,6.05-5.884,12.1-8.827,18.15c-8.343,17.157-4.822,37.706,12.557,47.887    c15.503,9.081,39.547,4.594,47.887-12.557c11.036-22.696,22.073-45.393,33.11-68.089c25.422-52.279,50.844-104.559,76.267-156.839    c28.276-58.148,56.553-116.297,84.829-174.446c19.599-40.304,39.197-80.608,58.797-120.912c2.941-6.05,5.884-12.101,8.826-18.151    c5.588-11.491,6.696-23.898,0-35.33c-6.235-10.644-17.879-17.335-30.222-17.335c-44.804,0-89.608,0-134.412,0    c-42.472,0-84.944,0-127.417,0c11.667,11.667,23.333,23.333,35,35c0-36.436,0-72.872,0-109.308c0-63.333,0-126.665,0-189.997    c0-23.706,0-47.413,0-71.119c0-15.566-10.682-29.62-25.695-33.75c-14.239-3.917-32.747,2.123-39.526,16.085    c-11.04,22.736-22.08,45.472-33.12,68.208c-25.419,52.351-50.839,104.702-76.259,157.052    c-28.249,58.179-56.499,116.357-84.748,174.536c-19.529,40.22-39.058,80.439-58.587,120.659    c-2.886,5.944-5.772,11.889-8.659,17.833c-5.582,11.496-6.7,23.894,0,35.33c6.235,10.644,17.879,17.335,30.222,17.335    c44.726,0,89.452,0,134.178,0c42.398,0,84.797,0,127.195,0c-11.667-11.667-23.333-23.333-35-35c0,36.45,0,72.901,0,109.352    c0,63.357,0,126.716,0,190.073c0,23.715,0,47.431,0,71.146c0,19.079,15.921,35,35,35S497.456,962.897,497.456,943.818z"/></g></g><g display="none"><g display="inline"><path d="M406.692,953.123c7.567-35.056,15.135-70.11,22.703-105.165c13.439-62.251,26.878-124.503,40.317-186.754    c5.659-26.218,11.319-52.436,16.979-78.652c2.026-9.388,1.421-18.521-3.528-26.97c-6.235-10.644-17.879-17.335-30.222-17.335    c-45.549,0-91.098,0-136.647,0c-38.242,0-76.484,0-114.727,0c10.074,17.555,20.147,35.11,30.222,52.665    c13.007-19.927,26.015-39.854,39.022-59.781c30.681-47.002,61.363-94.004,92.044-141.006    c35.842-54.909,71.685-109.818,107.527-164.728c28.492-43.647,56.983-87.295,85.475-130.943    c9.103-13.943,18.204-27.887,27.306-41.83c-21.324-8.99-42.647-17.979-63.972-26.969c-7.567,35.041-15.136,70.082-22.703,105.123    c-13.438,62.227-26.878,124.453-40.317,186.68c-5.66,26.207-11.32,52.414-16.98,78.621c-2.027,9.387-1.42,18.521,3.528,26.969    c6.235,10.644,17.879,17.335,30.222,17.335c45.632,0,91.263,0,136.895,0c38.311,0,76.622,0,114.934,0    c-10.074-17.555-20.147-35.11-30.222-52.665c-13.024,19.933-26.049,39.865-39.073,59.797    c-30.721,47.015-61.441,94.031-92.162,141.045c-35.89,54.924-71.778,109.849-107.667,164.772    c-28.528,43.66-57.057,87.32-85.585,130.979c-9.113,13.947-18.227,27.895-27.34,41.842c-10.447,15.989-3.28,38.609,12.557,47.887    c17.079,10.005,37.472,3.382,47.887-12.557c13.024-19.933,26.049-39.865,39.073-59.798c30.721-47.015,61.441-94.03,92.162-141.045    c35.89-54.924,71.778-109.849,107.667-164.772c28.528-43.66,57.057-87.319,85.585-130.979    c9.113-13.947,18.228-27.895,27.341-41.842c14.747-22.57-4.698-52.665-30.222-52.665c-45.632,0-91.263,0-136.895,0    c-38.311,0-76.622,0-114.934,0c11.25,14.768,22.5,29.536,33.75,44.304c7.567-35.041,15.136-70.082,22.703-105.123    c13.438-62.227,26.878-124.453,40.317-186.68c5.659-26.207,11.319-52.414,16.979-78.621c3.342-15.473-1.983-31.266-16.085-39.526    c-17.073-10.001-37.479-3.387-47.887,12.557c-13.008,19.927-26.015,39.854-39.022,59.781    c-30.681,47.002-61.363,94.005-92.044,141.007c-35.842,54.909-71.685,109.818-107.528,164.728    c-28.491,43.647-56.983,87.295-85.475,130.943c-9.102,13.943-18.203,27.887-27.305,41.83    c-14.735,22.573,4.688,52.665,30.222,52.665c45.549,0,91.098,0,136.647,0c38.242,0,76.484,0,114.727,0    c-11.25-14.769-22.5-29.536-33.75-44.305c-7.567,35.056-15.135,70.11-22.703,105.165    c-13.439,62.252-26.878,124.503-40.317,186.754c-5.66,26.218-11.32,52.436-16.98,78.652c-4.022,18.632,5.295,37.787,24.446,43.055    C381.24,982.41,402.666,971.775,406.692,953.123z"/></g></g><g display="none"><g display="inline"><path d="M252.679,932.268c13.537-29.87,27.073-59.74,40.61-89.611c26.473-58.414,52.945-116.829,79.418-175.244    c18.202-40.165,36.404-80.33,54.606-120.495c0.789-1.74,1.577-3.48,2.366-5.221c5.313-11.724,6.827-23.675,0-35.33    c-6.235-10.644-17.879-17.335-30.222-17.335c-49.375,0-98.749,0-148.123,0c-16.75,0-33.5,0-50.251,0    c11.25,14.769,22.5,29.536,33.75,44.305c5.731-30.161,11.462-60.321,17.194-90.482c11.828-62.245,23.656-124.489,35.484-186.734    c9.876-51.974,19.753-103.947,29.629-155.921c1.692-8.907,3.385-17.814,5.078-26.722c-11.25,8.565-22.5,17.13-33.75,25.696    c40.588,0,81.176,0,121.764,0c57.657,0,115.314,0,172.97,0c6.418,0,12.836,0,19.254,0c-10.074-17.555-20.147-35.11-30.222-52.665    c-15.155,35.551-30.311,71.103-45.465,106.653c-23.95,56.182-47.9,112.363-71.85,168.545    c-5.229,12.265-10.457,24.53-15.686,36.795c-3.166,5.459-4.759,11.347-4.778,17.665c0.02,6.318,1.612,12.206,4.778,17.665    c6.235,10.644,17.879,17.335,30.222,17.335c45.297,0,90.595,0,135.892,0c39.646,0,79.291,0,118.937,0    c-8.25-19.916-16.499-39.833-24.749-59.749c-14.456,15.51-28.911,31.021-43.367,46.531    c-35.434,38.018-70.866,76.036-106.3,114.054c-44.508,47.755-89.017,95.51-133.525,143.266    c-41.682,44.722-83.363,89.444-125.045,134.167c-26.953,28.919-53.906,57.838-80.859,86.757    c-4.244,4.554-8.488,9.107-12.732,13.661c-12.998,13.946-13.839,35.658,0,49.498c13.129,13.129,36.489,13.957,49.497,0    c14.456-15.511,28.912-31.021,43.368-46.531c35.434-38.019,70.866-76.036,106.3-114.055    c44.508-47.755,89.017-95.51,133.524-143.266c41.682-44.722,83.363-89.444,125.045-134.167    c26.953-28.919,53.906-57.838,80.859-86.757c4.244-4.554,8.488-9.108,12.732-13.662c8.596-9.223,12.405-21.675,9.001-34.053    c-4.13-15.014-18.185-25.696-33.75-25.696c-45.297,0-90.595,0-135.892,0c-39.646,0-79.291,0-118.937,0    c10.074,17.555,20.147,35.11,30.222,52.665c15.155-35.551,30.311-71.103,45.465-106.653c23.95-56.182,47.9-112.363,71.85-168.545    c5.229-12.265,10.457-24.53,15.686-36.795c3.166-5.459,4.759-11.347,4.778-17.665c-0.02-6.318-1.612-12.206-4.778-17.665    c-6.235-10.644-17.879-17.335-30.222-17.335c-40.588,0-81.176,0-121.765,0c-57.656,0-115.313,0-172.97,0    c-6.417,0-12.835,0-19.253,0c-14.607,0-30.875,10.57-33.75,25.696c-5.731,30.16-11.462,60.321-17.194,90.481    c-11.828,62.245-23.656,124.489-35.484,186.734c-9.876,51.974-19.753,103.947-29.629,155.921    c-1.692,8.907-3.385,17.814-5.078,26.722c-1.812,9.535-1.514,18.361,3.528,26.97c6.235,10.644,17.879,17.335,30.222,17.335    c49.375,0,98.749,0,148.123,0c16.75,0,33.5,0,50.251,0c-10.074-17.555-20.147-35.11-30.222-52.665    c-13.537,29.87-27.073,59.74-40.61,89.611c-26.473,58.414-52.945,116.829-79.418,175.244    c-18.202,40.165-36.404,80.33-54.606,120.495c-0.789,1.74-1.577,3.48-2.366,5.221c-4.044,8.924-6.225,17.165-3.528,26.97    c2.407,8.748,8.261,16.334,16.085,20.917c8.083,4.735,17.936,6.013,26.969,3.528C239.747,946.156,249.122,940.117,252.679,932.268    z"/></g></g><g display="none"><g display="inline"><path d="M180.684,575.388c47.269,0,94.538,0,141.807,0c30.064,0,60.129,0,90.193,0c-11.667-11.667-23.333-23.333-35-35    c0,34.941,0,69.883,0,104.825c0,64.106,0,128.212,0,192.318c0,32.285,0,64.571,0,96.856c0,15.565,10.682,29.62,25.696,33.75    c15.84,4.357,30.726-2.938,39.526-16.085c14.08-21.035,28.16-42.071,42.241-63.106c32.394-48.396,64.788-96.793,97.183-145.188    c35.938-53.692,71.878-107.384,107.816-161.076c24.714-36.923,49.429-73.845,74.143-110.767    c3.539-5.288,7.078-10.575,10.617-15.862c15.046-22.479-4.921-52.665-30.222-52.665c-47.269,0-94.538,0-141.807,0    c-30.064,0-60.129,0-90.193,0c11.667,11.667,23.333,23.333,35,35c0-34.941,0-69.883,0-104.825c0-64.106,0-128.213,0-192.319    c0-32.286,0-64.571,0-96.856c0-15.566-10.682-29.62-25.695-33.75c-15.841-4.357-30.727,2.938-39.526,16.085    c-14.08,21.035-28.16,42.071-42.24,63.106c-32.395,48.396-64.789,96.792-97.183,145.189    C307.1,288.71,271.161,342.402,235.222,396.094c-24.714,36.922-49.428,73.845-74.143,110.768    c-3.539,5.287-7.078,10.574-10.617,15.861c-10.626,15.875-3.144,38.689,12.557,47.887c17.217,10.086,37.297,3.265,47.887-12.557    c14.08-21.035,28.16-42.071,42.24-63.106c32.395-48.396,64.789-96.792,97.183-145.189    c35.938-53.692,71.877-107.384,107.816-161.076c24.714-36.922,49.429-73.845,74.143-110.767    c3.539-5.287,7.078-10.575,10.617-15.862c-21.74-5.888-43.481-11.777-65.222-17.665c0,34.941,0,69.883,0,104.825    c0,64.106,0,128.213,0,192.319c0,32.286,0,64.571,0,96.856c0,19.079,15.921,35,35,35c47.269,0,94.538,0,141.807,0    c30.064,0,60.129,0,90.193,0c-10.074-17.555-20.147-35.11-30.222-52.665c-14.08,21.035-28.16,42.071-42.24,63.106    c-32.395,48.396-64.789,96.793-97.183,145.188C539.1,682.71,503.161,736.402,467.222,790.094    c-24.714,36.923-49.428,73.845-74.142,110.768c-3.539,5.287-7.078,10.574-10.617,15.861c21.741,5.889,43.481,11.776,65.222,17.665    c0-34.941,0-69.883,0-104.825c0-64.106,0-128.212,0-192.318c0-32.285,0-64.571,0-96.856c0-19.079-15.921-35-35-35    c-47.269,0-94.538,0-141.807,0c-30.064,0-60.129,0-90.193,0c-19.079,0-35,15.921-35,35S161.605,575.388,180.684,575.388z"/></g></g><g display="none"><g display="inline"><path d="M483.456,943.818c0-36.451,0-72.901,0-109.352c0-63.357,0-126.715,0-190.072c0-23.716,0-47.432,0-71.147    c0-11.447-9.553-21-21-21c-44.726,0-89.452,0-134.178,0c-42.398,0-84.797,0-127.195,0c6.044,10.533,12.088,21.066,18.133,31.599    c11.04-22.735,22.08-45.472,33.12-68.208c25.419-52.351,50.839-104.702,76.259-157.053    c28.25-58.178,56.499-116.357,84.748-174.536c19.529-40.219,39.059-80.439,58.587-120.659c2.887-5.944,5.772-11.889,8.659-17.833    c-13.044-3.533-26.088-7.066-39.133-10.599c0,36.436,0,72.872,0,109.308c0,63.333,0,126.665,0,189.997c0,23.707,0,47.413,0,71.119    c0,11.447,9.553,21,21,21c44.804,0,89.607,0,134.412,0c42.473,0,84.944,0,127.417,0c-6.044-10.533-12.089-21.066-18.133-31.599    c-11.037,22.696-22.073,45.393-33.11,68.089c-25.422,52.28-50.845,104.559-76.267,156.838    c-28.276,58.149-56.553,116.298-84.829,174.446c-19.6,40.305-39.198,80.608-58.797,120.912c-2.942,6.051-5.884,12.101-8.826,18.15    c-5.006,10.295-2.894,22.624,7.534,28.732c9.302,5.449,23.728,2.757,28.732-7.533c11.037-22.697,22.073-45.394,33.11-68.09    c25.422-52.279,50.845-104.559,76.267-156.838c28.276-58.149,56.553-116.298,84.829-174.446    c19.599-40.305,39.198-80.608,58.797-120.912c2.942-6.05,5.884-12.101,8.826-18.151c6.807-13.998-1.294-31.599-18.133-31.599    c-44.804,0-89.608,0-134.412,0c-42.472,0-84.944,0-127.417,0c7,7,14,14,21,21c0-36.436,0-72.872,0-109.308    c0-63.333,0-126.665,0-189.997c0-23.706,0-47.413,0-71.119c0-9.339-6.409-17.772-15.417-20.25    c-8.543-2.35-19.648,1.273-23.716,9.651c-11.04,22.736-22.08,45.473-33.12,68.208c-25.419,52.351-50.839,104.702-76.259,157.053    c-28.25,58.178-56.499,116.357-84.748,174.536c-19.529,40.219-39.059,80.439-58.587,120.658    c-2.887,5.944-5.773,11.889-8.659,17.834c-3.35,6.897-4.02,14.336,0,21.197c3.741,6.387,10.727,10.401,18.133,10.401    c44.726,0,89.452,0,134.178,0c42.398,0,84.797,0,127.195,0c-7-7-14-14-21-21c0,36.45,0,72.901,0,109.352    c0,63.357,0,126.716,0,190.073c0,23.715,0,47.431,0,71.146c0,11.447,9.553,21,21,21S483.456,955.265,483.456,943.818z"/></g></g><g display="none"><g display="inline"><path d="M392.707,949.401c7.567-35.056,15.135-70.11,22.703-105.165c13.439-62.252,26.878-124.503,40.317-186.754    c5.66-26.218,11.32-52.436,16.98-78.652c2.857-13.235-6.02-26.583-20.25-26.583c-45.549,0-91.098,0-136.647,0    c-38.242,0-76.484,0-114.727,0c6.044,10.533,12.088,21.066,18.133,31.599c13.008-19.927,26.015-39.854,39.023-59.78    c30.681-47.002,61.362-94.005,92.043-141.007c35.843-54.909,71.686-109.818,107.528-164.728    c28.492-43.648,56.983-87.295,85.475-130.943c9.102-13.943,18.203-27.887,27.305-41.83c-12.794-5.394-25.589-10.788-38.383-16.182    c-7.567,35.041-15.136,70.082-22.703,105.123c-13.439,62.227-26.878,124.453-40.317,186.68    c-5.659,26.207-11.319,52.414-16.979,78.621c-2.858,13.234,6.021,26.583,20.25,26.583c45.632,0,91.263,0,136.895,0    c38.311,0,76.622,0,114.934,0c-6.044-10.533-12.089-21.066-18.133-31.599c-13.024,19.933-26.049,39.865-39.073,59.797    c-30.721,47.016-61.441,94.03-92.163,141.046c-35.889,54.924-71.777,109.849-107.666,164.772    c-28.529,43.66-57.057,87.319-85.585,130.979c-9.114,13.947-18.227,27.895-27.34,41.841c-6.269,9.594-1.968,23.166,7.534,28.732    c10.248,6.003,22.483,2.029,28.732-7.533c13.024-19.933,26.049-39.865,39.073-59.798c30.721-47.016,61.441-94.03,92.163-141.046    c35.889-54.924,71.777-109.848,107.666-164.772c28.528-43.66,57.058-87.319,85.586-130.979    c9.113-13.947,18.227-27.894,27.34-41.841c8.849-13.542-2.818-31.599-18.133-31.599c-45.632,0-91.263,0-136.895,0    c-38.311,0-76.622,0-114.934,0c6.75,8.861,13.5,17.722,20.25,26.583c7.567-35.041,15.136-70.082,22.703-105.123    c13.439-62.227,26.878-124.453,40.317-186.68c5.659-26.207,11.319-52.414,16.979-78.621c2.005-9.284-1.19-18.759-9.651-23.715    c-10.244-6.001-22.487-2.032-28.731,7.534c-13.008,19.927-26.016,39.854-39.022,59.781    c-30.682,47.002-61.363,94.004-92.044,141.006c-35.843,54.909-71.686,109.818-107.528,164.728    c-28.492,43.648-56.983,87.295-85.475,130.944c-9.102,13.943-18.204,27.887-27.305,41.83    c-8.841,13.544,2.813,31.599,18.133,31.599c45.549,0,91.098,0,136.647,0c38.242,0,76.484,0,114.727,0    c-6.75-8.861-13.5-17.722-20.25-26.583c-7.567,35.056-15.135,70.11-22.703,105.165c-13.439,62.252-26.878,124.503-40.317,186.754    c-5.66,26.218-11.32,52.436-16.98,78.652c-2.413,11.18,3.177,22.672,14.667,25.833    C377.436,966.973,390.291,960.592,392.707,949.401z"/></g></g><g display="none"><g display="inline"><path d="M240.59,925.203c13.537-29.871,27.073-59.741,40.61-89.611c26.473-58.415,52.945-116.83,79.417-175.245    c18.202-40.165,36.404-80.33,54.606-120.495c0.789-1.74,1.577-3.48,2.366-5.221c3.188-7.034,4.097-14.204,0-21.197    c-3.741-6.387-10.727-10.401-18.133-10.401c-49.375,0-98.749,0-148.123,0c-16.75,0-33.5,0-50.251,0    c6.75,8.861,13.5,17.722,20.25,26.583c5.731-30.161,11.462-60.321,17.194-90.482c11.828-62.245,23.656-124.489,35.485-186.734    c9.876-51.974,19.752-103.947,29.629-155.921c1.693-8.907,3.385-17.814,5.078-26.722c-6.75,5.139-13.5,10.278-20.25,15.417    c40.588,0,81.176,0,121.764,0c57.657,0,115.314,0,172.97,0c6.418,0,12.836,0,19.254,0c-6.044-10.533-12.089-21.066-18.133-31.599    c-15.155,35.551-30.311,71.103-45.466,106.654c-23.949,56.182-47.899,112.363-71.849,168.545    c-5.229,12.265-10.457,24.53-15.686,36.794c-3.047,7.146-4.162,14.094,0,21.198c3.741,6.386,10.728,10.401,18.133,10.401    c45.297,0,90.595,0,135.892,0c39.646,0,79.291,0,118.937,0c-4.95-11.95-9.899-23.899-14.85-35.849    c-14.456,15.51-28.911,31.021-43.367,46.531c-35.434,38.018-70.866,76.036-106.3,114.054    c-44.508,47.755-89.017,95.51-133.525,143.266c-41.681,44.722-83.363,89.444-125.044,134.167    c-26.953,28.919-53.906,57.838-80.859,86.757c-4.244,4.554-8.488,9.107-12.732,13.661c-7.799,8.368-8.304,21.396,0,29.699    c7.877,7.877,21.894,8.374,29.698,0c14.456-15.511,28.912-31.021,43.368-46.532c35.433-38.018,70.866-76.035,106.299-114.054    c44.508-47.755,89.017-95.51,133.525-143.266c41.682-44.722,83.363-89.444,125.045-134.167    c26.953-28.919,53.906-57.838,80.859-86.757c4.244-4.554,8.488-9.107,12.732-13.661c12.311-13.208,3.95-35.849-14.85-35.849    c-45.297,0-90.595,0-135.892,0c-39.646,0-79.291,0-118.937,0c6.044,10.533,12.089,21.066,18.133,31.599    c15.155-35.551,30.311-71.103,45.466-106.654c23.949-56.182,47.899-112.363,71.849-168.545    c5.229-12.265,10.457-24.53,15.686-36.794c3.047-7.146,4.161-14.094,0-21.198c-3.741-6.386-10.728-10.401-18.133-10.401    c-40.588,0-81.176,0-121.765,0c-57.656,0-115.313,0-172.97,0c-6.417,0-12.835,0-19.253,0c-8.764,0-18.525,6.342-20.25,15.417    c-5.731,30.161-11.462,60.321-17.194,90.481c-11.828,62.245-23.656,124.489-35.485,186.734    c-9.876,51.974-19.752,103.947-29.629,155.921c-1.693,8.907-3.385,17.814-5.078,26.722c-2.518,13.25,5.765,26.583,20.25,26.583    c49.375,0,98.749,0,148.123,0c16.75,0,33.5,0,50.251,0c-6.044-10.533-12.088-21.066-18.133-31.599    c-13.537,29.87-27.073,59.74-40.61,89.61c-26.473,58.415-52.945,116.83-79.417,175.245    c-18.202,40.165-36.404,80.33-54.606,120.495c-0.789,1.74-1.577,3.48-2.366,5.22c-4.725,10.427-3.092,22.508,7.534,28.732    C220.957,938.066,235.864,935.63,240.59,925.203z"/></g></g><g display="none"><g display="inline"><path d="M180.684,561.388c47.269,0,94.538,0,141.807,0c30.064,0,60.129,0,90.193,0c-7-7-14-14-21-21c0,34.941,0,69.883,0,104.825    c0,64.106,0,128.212,0,192.318c0,32.285,0,64.571,0,96.856c0,9.34,6.409,17.771,15.417,20.25    c9.504,2.614,18.436-1.763,23.715-9.65c14.08-21.036,28.161-42.071,42.241-63.107c32.395-48.396,64.788-96.792,97.183-145.188    C606.179,683,642.118,629.308,678.057,575.616c24.715-36.922,49.429-73.845,74.143-110.767    c3.539-5.287,7.078-10.574,10.617-15.861c9.028-13.487-2.952-31.599-18.133-31.599c-47.269,0-94.538,0-141.807,0    c-30.064,0-60.129,0-90.193,0c7,7,14,14,21,21c0-34.941,0-69.883,0-104.825c0-64.106,0-128.213,0-192.319    c0-32.286,0-64.571,0-96.856c0-9.339-6.409-17.772-15.417-20.25c-9.505-2.614-18.436,1.763-23.716,9.651    c-14.08,21.036-28.16,42.071-42.241,63.106c-32.394,48.396-64.789,96.792-97.183,145.189    c-35.939,53.692-71.878,107.384-107.817,161.076c-24.714,36.922-49.428,73.845-74.143,110.767    c-3.539,5.287-7.078,10.574-10.617,15.861c-6.376,9.525-1.887,23.214,7.534,28.732c10.331,6.052,22.378,1.959,28.732-7.533    c14.08-21.036,28.161-42.071,42.241-63.107c32.394-48.396,64.789-96.792,97.183-145.189    C374.179,289,410.118,235.308,446.057,181.616c24.714-36.922,49.428-73.845,74.142-110.768    c3.539-5.287,7.078-10.574,10.617-15.861c-13.044-3.533-26.089-7.066-39.133-10.599c0,34.941,0,69.883,0,104.825    c0,64.106,0,128.213,0,192.319c0,32.286,0,64.571,0,96.856c0,11.447,9.553,21,21,21c47.269,0,94.538,0,141.807,0    c30.064,0,60.129,0,90.193,0c-6.044-10.533-12.089-21.066-18.133-31.599c-14.08,21.036-28.16,42.071-42.24,63.107    c-32.395,48.396-64.789,96.792-97.184,145.188c-35.938,53.692-71.877,107.384-107.816,161.076    c-24.714,36.922-49.428,73.845-74.143,110.767c-3.539,5.287-7.078,10.574-10.617,15.861c13.044,3.533,26.088,7.066,39.133,10.6    c0-34.941,0-69.883,0-104.825c0-64.106,0-128.212,0-192.318c0-32.285,0-64.571,0-96.856c0-11.447-9.552-21-21-21    c-47.269,0-94.538,0-141.807,0c-30.064,0-60.129,0-90.193,0c-11.448,0-21,9.553-21,21S169.236,561.388,180.684,561.388z"/></g></g><g><g><path d="M472.956,943.818c0-36.451,0-72.901,0-109.352c0-63.357,0-126.715,0-190.072c0-23.716,0-47.432,0-71.147    c0-5.724-4.776-10.5-10.5-10.5c-44.726,0-89.452,0-134.178,0c-42.398,0-84.797,0-127.195,0c3.022,5.267,6.044,10.533,9.066,15.8    c11.04-22.736,22.08-45.473,33.12-68.209c25.419-52.351,50.839-104.702,76.259-157.052    c28.25-58.179,56.499-116.357,84.748-174.536c19.529-40.22,39.058-80.439,58.587-120.659c2.887-5.944,5.772-11.889,8.659-17.833    c-6.522-1.766-13.044-3.533-19.566-5.299c0,36.436,0,72.872,0,109.308c0,63.333,0,126.665,0,189.997c0,23.707,0,47.413,0,71.119    c0,5.724,4.776,10.5,10.5,10.5c44.804,0,89.607,0,134.412,0c42.473,0,84.944,0,127.417,0c-3.022-5.267-6.044-10.533-9.066-15.8    c-11.037,22.697-22.073,45.393-33.11,68.089c-25.422,52.28-50.845,104.559-76.267,156.838    c-28.276,58.148-56.553,116.298-84.829,174.446c-19.599,40.304-39.198,80.608-58.797,120.912    c-2.942,6.05-5.884,12.101-8.826,18.15c-2.503,5.147-1.447,11.313,3.767,14.366c4.651,2.725,11.864,1.378,14.366-3.767    c11.037-22.696,22.073-45.393,33.11-68.089c25.422-52.28,50.845-104.56,76.267-156.839    c28.276-58.149,56.553-116.298,84.829-174.446c19.599-40.304,39.198-80.608,58.797-120.912c2.942-6.05,5.884-12.101,8.826-18.15    c3.403-6.999-0.647-15.8-9.066-15.8c-44.804,0-89.608,0-134.412,0c-42.472,0-84.944,0-127.417,0c3.5,3.5,7,7,10.5,10.5    c0-36.436,0-72.872,0-109.308c0-63.333,0-126.665,0-189.997c0-23.706,0-47.413,0-71.119c0-9.963-14.863-14.987-19.566-5.299    c-11.04,22.736-22.08,45.472-33.12,68.208c-25.419,52.351-50.839,104.702-76.259,157.052    c-28.25,58.179-56.499,116.357-84.748,174.536c-19.529,40.22-39.058,80.439-58.587,120.659    c-2.886,5.944-5.773,11.889-8.659,17.833c-3.399,7,0.644,15.8,9.066,15.8c44.726,0,89.452,0,134.178,0    c42.398,0,84.797,0,127.195,0c-3.5-3.5-7-7-10.5-10.5c0,36.45,0,72.901,0,109.352c0,63.357,0,126.716,0,190.073    c0,23.715,0,47.431,0,71.146C451.956,957.36,472.956,957.36,472.956,943.818z"/></g></g><g display="none"><g display="inline"><path d="M382.582,946.609c7.568-35.055,15.135-70.109,22.703-105.164c13.439-62.252,26.878-124.503,40.317-186.755    c5.66-26.217,11.32-52.435,16.98-78.652c1.429-6.617-3.01-13.291-10.125-13.291c-45.549,0-91.098,0-136.647,0    c-38.242,0-76.484,0-114.727,0c3.022,5.267,6.044,10.533,9.066,15.8c13.008-19.928,26.015-39.854,39.023-59.781    c30.681-47.002,61.362-94.004,92.043-141.007c35.843-54.909,71.685-109.818,107.528-164.728    c28.492-43.647,56.983-87.295,85.475-130.943c9.102-13.943,18.203-27.887,27.305-41.83c-6.397-2.697-12.794-5.394-19.191-8.091    c-7.567,35.041-15.136,70.082-22.703,105.123c-13.439,62.227-26.878,124.453-40.317,186.68    c-5.659,26.207-11.319,52.414-16.979,78.621c-1.429,6.618,3.01,13.292,10.125,13.292c45.632,0,91.263,0,136.895,0    c38.311,0,76.622,0,114.934,0c-3.022-5.267-6.044-10.533-9.066-15.8c-13.024,19.933-26.049,39.865-39.073,59.798    c-30.721,47.015-61.441,94.03-92.163,141.045c-35.889,54.925-71.777,109.849-107.666,164.773    c-28.529,43.659-57.057,87.319-85.585,130.979c-9.113,13.946-18.227,27.894-27.34,41.841c-7.432,11.374,10.758,21.885,18.133,10.6    c13.024-19.933,26.049-39.865,39.073-59.798c30.721-47.015,61.441-94.03,92.163-141.045    c35.889-54.925,71.777-109.849,107.666-164.773c28.528-43.659,57.057-87.319,85.585-130.979    c9.114-13.947,18.228-27.895,27.341-41.841c4.425-6.771-1.409-15.8-9.066-15.8c-45.632,0-91.263,0-136.895,0    c-38.311,0-76.622,0-114.934,0c3.375,4.431,6.75,8.861,10.125,13.292c7.567-35.041,15.136-70.082,22.703-105.123    c13.439-62.227,26.878-124.453,40.317-186.68c5.659-26.207,11.319-52.414,16.979-78.621c2.532-11.725-12.601-18.188-19.191-8.091    c-13.008,19.927-26.016,39.854-39.022,59.781c-30.682,47.002-61.363,94.004-92.044,141.007    c-35.843,54.909-71.685,109.818-107.528,164.728c-28.492,43.647-56.983,87.295-85.475,130.943    c-9.102,13.943-18.204,27.887-27.305,41.83c-4.42,6.772,1.406,15.8,9.066,15.8c45.549,0,91.098,0,136.647,0    c38.242,0,76.484,0,114.727,0c-3.375-4.431-6.75-8.861-10.125-13.291c-7.568,35.055-15.135,70.109-22.703,105.165    c-13.439,62.251-26.878,124.502-40.317,186.754c-5.66,26.217-11.32,52.435-16.98,78.652    C359.481,954.23,379.725,959.844,382.582,946.609z"/></g></g><g display="none"><g display="inline"><path d="M231.523,919.903c13.537-29.87,27.073-59.741,40.61-89.611c26.472-58.415,52.945-116.83,79.417-175.244    c18.202-40.165,36.404-80.33,54.606-120.495c0.789-1.74,1.577-3.48,2.366-5.221c3.186-7.029-0.484-15.8-9.066-15.8    c-49.375,0-98.749,0-148.123,0c-16.75,0-33.5,0-50.251,0c3.375,4.431,6.75,8.861,10.125,13.291    c5.731-30.16,11.462-60.321,17.194-90.481c11.828-62.245,23.657-124.489,35.485-186.734    c9.876-51.974,19.752-103.947,29.629-155.92c1.693-8.908,3.385-17.815,5.078-26.722c-3.375,2.569-6.75,5.139-10.125,7.708    c40.588,0,81.176,0,121.764,0c57.657,0,115.314,0,172.97,0c6.418,0,12.836,0,19.254,0c-3.022-5.267-6.044-10.533-9.066-15.799    c-15.155,35.551-30.311,71.102-45.466,106.653c-23.949,56.182-47.899,112.363-71.849,168.545    c-5.229,12.265-10.457,24.53-15.686,36.794c-3.005,7.05,0.35,15.8,9.066,15.8c45.297,0,90.595,0,135.892,0    c39.646,0,79.291,0,118.937,0c-2.475-5.975-4.95-11.95-7.425-17.925c-14.456,15.511-28.912,31.021-43.367,46.532    c-35.434,38.018-70.866,76.036-106.3,114.054c-44.508,47.755-89.017,95.51-133.525,143.266    c-41.682,44.722-83.363,89.444-125.045,134.166c-26.953,28.92-53.906,57.839-80.859,86.758    c-4.244,4.554-8.488,9.107-12.732,13.661c-9.219,9.892,5.599,24.775,14.85,14.85c14.456-15.511,28.912-31.021,43.368-46.531    c35.433-38.019,70.866-76.036,106.299-114.054c44.508-47.756,89.017-95.511,133.524-143.266    c41.682-44.723,83.363-89.445,125.045-134.167c26.953-28.919,53.906-57.838,80.859-86.757c4.244-4.554,8.488-9.107,12.732-13.661    c6.155-6.604,1.975-17.925-7.425-17.925c-45.297,0-90.595,0-135.892,0c-39.646,0-79.291,0-118.937,0    c3.022,5.267,6.044,10.533,9.066,15.8c15.155-35.551,30.311-71.103,45.466-106.654c23.949-56.182,47.899-112.363,71.849-168.545    c5.229-12.265,10.457-24.53,15.686-36.795c3.006-7.05-0.351-15.799-9.066-15.799c-40.588,0-81.176,0-121.765,0    c-57.656,0-115.313,0-172.97,0c-6.417,0-12.835,0-19.253,0c-4.382,0-9.263,3.171-10.125,7.708    c-5.731,30.161-11.462,60.321-17.194,90.482c-11.828,62.245-23.657,124.489-35.485,186.734    c-9.876,51.974-19.752,103.947-29.629,155.92c-1.693,8.907-3.385,17.815-5.078,26.723c-1.259,6.624,2.882,13.291,10.125,13.291    c49.375,0,98.749,0,148.123,0c16.75,0,33.5,0,50.251,0c-3.022-5.267-6.044-10.533-9.066-15.8    c-13.537,29.871-27.073,59.741-40.61,89.611c-26.472,58.415-52.945,116.83-79.417,175.244    c-18.202,40.165-36.404,80.33-54.606,120.496c-0.789,1.739-1.577,3.479-2.366,5.22c-2.363,5.214-1.546,11.254,3.767,14.366    C221.707,926.334,229.161,925.117,231.523,919.903z"/></g></g><g display="none"><g display="inline"><path d="M180.684,550.888c47.269,0,94.538,0,141.807,0c30.064,0,60.129,0,90.193,0c-3.5-3.5-7-7-10.5-10.5    c0,34.941,0,69.883,0,104.825c0,64.106,0,128.212,0,192.318c0,32.285,0,64.571,0,96.856c0,10.895,13.92,13.735,19.566,5.3    c14.08-21.036,28.161-42.071,42.241-63.106c32.395-48.396,64.788-96.793,97.183-145.189    c35.938-53.691,71.878-107.384,107.816-161.075c24.715-36.923,49.429-73.845,74.143-110.768    c3.539-5.287,7.078-10.574,10.617-15.861c4.514-6.744-1.477-15.8-9.066-15.8c-47.269,0-94.538,0-141.807,0    c-30.064,0-60.129,0-90.193,0c3.5,3.5,7,7,10.5,10.5c0-34.941,0-69.883,0-104.825c0-64.106,0-128.213,0-192.319    c0-32.286,0-64.571,0-96.856c0-10.895-13.92-13.735-19.566-5.299c-14.08,21.035-28.16,42.071-42.24,63.106    c-32.395,48.396-64.789,96.793-97.183,145.189c-35.939,53.692-71.878,107.384-107.817,161.076    c-24.714,36.922-49.428,73.845-74.143,110.767c-3.539,5.287-7.078,10.574-10.617,15.861c-3.188,4.763-0.943,11.607,3.767,14.366    c5.165,3.025,11.189,0.979,14.366-3.767c14.08-21.036,28.161-42.071,42.241-63.106c32.394-48.396,64.789-96.793,97.183-145.189    c35.939-53.692,71.878-107.384,107.817-161.076c24.714-36.922,49.428-73.845,74.142-110.767    c3.539-5.287,7.078-10.574,10.617-15.862c-6.522-1.766-13.044-3.533-19.566-5.299c0,34.941,0,69.883,0,104.825    c0,64.106,0,128.213,0,192.319c0,32.286,0,64.571,0,96.856c0,5.724,4.776,10.5,10.5,10.5c47.269,0,94.538,0,141.807,0    c30.064,0,60.129,0,90.193,0c-3.022-5.267-6.044-10.533-9.066-15.8c-14.08,21.036-28.16,42.071-42.24,63.106    c-32.395,48.396-64.789,96.793-97.183,145.189c-35.939,53.691-71.878,107.384-107.817,161.075    c-24.714,36.923-49.428,73.845-74.143,110.768c-3.539,5.287-7.078,10.574-10.617,15.861c6.522,1.767,13.044,3.533,19.566,5.3    c0-34.941,0-69.883,0-104.825c0-64.106,0-128.212,0-192.318c0-32.285,0-64.571,0-96.856c0-5.724-4.776-10.5-10.5-10.5    c-47.269,0-94.538,0-141.807,0c-30.064,0-60.129,0-90.193,0C167.142,529.888,167.142,550.888,180.684,550.888z"/></g></g><g display="none"><g display="inline"><path d="M615.435,43.991c-19.349,17.603-38.697,35.205-58.046,52.807c-43.864,39.905-87.729,79.811-131.594,119.717    c-47.109,42.857-94.218,85.713-141.326,128.57c-29.081,26.456-58.162,52.912-87.242,79.368c-2.029,1.846-4.058,3.692-6.087,5.538    c-21.862,19.889-29.261,53.885-21.603,81.727c9.912,36.034,43.642,61.67,81,61.67c33.071,0,66.143,0,99.214,0    c64.195,0,128.39,0,192.585,0c42.789,0,85.578,0,128.368,0c1.376,0,2.752,0,4.128,0c-19.799-47.799-39.598-95.598-59.397-143.397    c-19.349,17.603-38.697,35.205-58.046,52.807c-43.864,39.905-87.729,79.812-131.594,119.717    c-47.109,42.856-94.218,85.714-141.326,128.57c-29.081,26.456-58.162,52.912-87.242,79.368c-2.029,1.846-4.058,3.691-6.087,5.538    c-16.041,14.593-24.603,38.094-24.603,59.396c0,22.189,8.921,43.715,24.603,59.396c15.682,15.683,37.208,24.604,59.397,24.604    c23.071,0,42.632-9.352,59.397-24.604c19.349-17.602,38.697-35.204,58.046-52.807c43.865-39.905,87.729-79.812,131.594-119.717    c47.109-42.856,94.218-85.714,141.326-128.57c29.081-26.456,58.161-52.912,87.242-79.368c2.029-1.846,4.059-3.691,6.088-5.538    c21.861-19.889,29.261-53.885,21.602-81.727c-9.911-36.034-43.642-61.669-80.999-61.669c-33.071,0-66.143,0-99.215,0    c-64.194,0-128.39,0-192.584,0c-42.79,0-85.579,0-128.368,0c-1.376,0-2.752,0-4.128,0c19.799,47.799,39.598,95.598,59.397,143.396    c19.349-17.602,38.697-35.204,58.046-52.807c43.865-39.905,87.729-79.811,131.594-119.717    c47.109-42.857,94.218-85.713,141.326-128.57c29.081-26.456,58.161-52.912,87.242-79.368c2.029-1.846,4.059-3.692,6.088-5.538    c16.04-14.593,24.603-38.095,24.603-59.397c0-22.189-8.921-43.715-24.603-59.397c-15.683-15.682-37.208-24.603-59.397-24.603    C651.761,19.388,632.2,28.739,615.435,43.991L615.435,43.991z"/></g></g><g display="none"><g display="inline"><path d="M635.234,63.79c-19.349,17.603-38.698,35.205-58.047,52.807c-43.864,39.906-87.729,79.812-131.594,119.717    c-47.109,42.857-94.217,85.714-141.326,128.57c-29.081,26.456-58.161,52.912-87.242,79.368c-2.029,1.846-4.058,3.692-6.087,5.538    c-14.574,13.259-19.507,35.924-14.401,54.485c6.608,24.022,29.094,41.113,54,41.113c33.071,0,66.143,0,99.214,0    c64.195,0,128.39,0,192.585,0c42.789,0,85.578,0,128.368,0c1.376,0,2.752,0,4.128,0c-13.199-31.866-26.398-63.732-39.598-95.598    c-19.349,17.603-38.698,35.205-58.047,52.807c-43.864,39.905-87.729,79.812-131.594,119.717    c-47.109,42.857-94.217,85.714-141.326,128.57c-29.081,26.456-58.161,52.912-87.242,79.368c-2.029,1.846-4.058,3.691-6.087,5.538    c-22.584,20.546-20.812,58.384,0,79.195c10.455,10.455,24.805,16.402,39.598,16.402c15.381,0,28.421-6.234,39.598-16.402    c19.349-17.602,38.697-35.204,58.046-52.807c43.865-39.905,87.729-79.812,131.594-119.717    c47.108-42.857,94.218-85.714,141.326-128.57c29.081-26.456,58.161-52.912,87.242-79.368c2.029-1.846,4.059-3.691,6.087-5.538    c14.575-13.259,19.508-35.923,14.402-54.485c-6.608-24.022-29.095-41.113-54-41.113c-33.071,0-66.143,0-99.215,0    c-64.194,0-128.39,0-192.584,0c-42.79,0-85.579,0-128.368,0c-1.376,0-2.752,0-4.128,0c13.199,31.866,26.398,63.732,39.598,95.598    c19.349-17.602,38.697-35.204,58.046-52.807c43.865-39.906,87.729-79.812,131.594-119.717    c47.108-42.857,94.218-85.714,141.326-128.57c29.081-26.456,58.161-52.912,87.242-79.368c2.029-1.846,4.059-3.692,6.087-5.538    c22.585-20.546,20.813-58.384,0-79.196c-10.454-10.455-24.805-16.402-39.598-16.402C659.451,47.388,646.411,53.623,635.234,63.79    L635.234,63.79z"/></g></g><g display="none"><g display="inline"><path d="M650.083,78.64c-19.349,17.602-38.697,35.205-58.046,52.807c-43.864,39.906-87.729,79.812-131.594,119.717    c-47.109,42.857-94.217,85.714-141.326,128.571c-29.081,26.456-58.161,52.912-87.242,79.368c-2.029,1.846-4.059,3.692-6.087,5.538    c-9.109,8.287-12.192,22.452-9.001,34.053c4.13,15.014,18.184,25.695,33.75,25.695c33.071,0,66.143,0,99.214,0    c64.195,0,128.39,0,192.585,0c42.789,0,85.578,0,128.368,0c1.376,0,2.752,0,4.128,0c-8.25-19.916-16.499-39.833-24.749-59.749    c-19.349,17.602-38.697,35.205-58.046,52.807c-43.864,39.905-87.729,79.811-131.594,119.717    c-47.109,42.856-94.217,85.713-141.326,128.57c-29.081,26.456-58.161,52.912-87.242,79.367c-2.029,1.847-4.059,3.692-6.087,5.538    c-14.116,12.842-13.008,36.49,0,49.498c13.96,13.96,35.397,12.827,49.497,0c19.349-17.603,38.698-35.205,58.046-52.808    c43.865-39.905,87.729-79.811,131.594-119.717c47.109-42.856,94.218-85.713,141.326-128.57    c29.081-26.456,58.162-52.912,87.242-79.367c2.029-1.847,4.059-3.692,6.088-5.538c9.108-8.287,12.191-22.452,9.001-34.053    c-4.13-15.014-18.185-25.696-33.75-25.696c-33.071,0-66.143,0-99.215,0c-64.194,0-128.39,0-192.584,0c-42.79,0-85.579,0-128.368,0    c-1.376,0-2.752,0-4.128,0c8.25,19.916,16.499,39.832,24.749,59.749c19.349-17.603,38.698-35.205,58.046-52.807    c43.865-39.906,87.729-79.812,131.594-119.717c47.109-42.857,94.218-85.714,141.326-128.571    c29.081-26.456,58.162-52.912,87.242-79.368c2.029-1.846,4.059-3.692,6.088-5.538c14.115-12.841,13.007-36.49,0-49.497    C685.62,64.679,664.184,65.812,650.083,78.64L650.083,78.64z"/></g></g><g display="none"><g display="inline"><path d="M659.982,88.539c-19.349,17.602-38.697,35.205-58.046,52.807c-43.864,39.905-87.729,79.811-131.594,119.717    c-47.109,42.856-94.218,85.713-141.327,128.57c-29.081,26.456-58.161,52.912-87.242,79.368c-2.029,1.846-4.059,3.692-6.087,5.538    c-13.814,12.567-2.832,35.849,14.849,35.849c33.071,0,66.143,0,99.214,0c64.195,0,128.39,0,192.585,0c42.789,0,85.578,0,128.368,0    c1.376,0,2.752,0,4.128,0c-4.95-11.95-9.899-23.899-14.85-35.849c-19.349,17.602-38.697,35.205-58.046,52.807    c-43.864,39.905-87.729,79.811-131.594,119.717c-47.109,42.856-94.218,85.714-141.327,128.57    c-29.081,26.456-58.161,52.912-87.242,79.368c-2.029,1.846-4.059,3.691-6.087,5.537c-8.469,7.705-7.805,21.895,0,29.699    c8.376,8.376,21.238,7.696,29.698,0c19.349-17.603,38.698-35.205,58.046-52.808c43.865-39.905,87.729-79.811,131.594-119.717    c47.109-42.856,94.217-85.714,141.326-128.57c29.081-26.456,58.162-52.912,87.242-79.368c2.029-1.846,4.059-3.691,6.088-5.537    c13.813-12.567,2.831-35.85-14.85-35.85c-33.071,0-66.143,0-99.215,0c-64.194,0-128.39,0-192.584,0c-42.79,0-85.579,0-128.368,0    c-1.376,0-2.752,0-4.128,0c4.95,11.95,9.899,23.899,14.849,35.85c19.349-17.603,38.698-35.205,58.046-52.808    c43.865-39.905,87.729-79.811,131.594-119.717c47.109-42.856,94.217-85.713,141.326-128.57    c29.081-26.456,58.162-52.912,87.242-79.368c2.029-1.846,4.059-3.692,6.088-5.538c8.469-7.705,7.804-21.894,0-29.698    C681.305,80.163,668.442,80.842,659.982,88.539L659.982,88.539z"/></g></g><g display="none"><g display="inline"><path d="M715.041,533.919c-32.253,32.253-64.506,64.507-96.759,96.761c-8.003,8.003-16.491,15.482-25.415,22.443    c3.778-2.919,7.556-5.838,11.334-8.757c-17.972,13.862-37.574,25.376-58.442,34.303c4.459-1.882,8.919-3.763,13.378-5.645    c-21.708,9.15-44.478,15.396-67.811,18.635c4.962-0.667,9.925-1.334,14.887-2c-23.645,3.158-47.559,3.197-71.214,0.12    c4.962,0.667,9.925,1.334,14.887,2.001c-23.346-3.159-46.141-9.321-67.888-18.384c4.459,1.881,8.918,3.763,13.377,5.645    c-21.344-9.027-41.383-20.747-59.728-34.908c3.778,2.919,7.556,5.838,11.333,8.757c-17.682-13.804-33.579-29.7-47.382-47.383    c2.919,3.778,5.838,7.557,8.756,11.334c-14.16-18.344-25.881-38.384-34.908-59.728c1.882,4.459,3.764,8.919,5.645,13.378    c-9.063-21.747-15.225-44.542-18.384-67.889c0.667,4.962,1.333,9.925,2,14.887c-3.077-23.655-3.038-47.569,0.121-71.214    c-0.667,4.962-1.333,9.925-2,14.887c3.239-23.333,9.484-46.103,18.635-67.811c-1.882,4.459-3.764,8.918-5.645,13.377    c8.927-20.868,20.441-40.47,34.303-58.442c-2.919,3.778-5.838,7.556-8.756,11.333c15.71-20.141,34.7-37.67,52.728-55.698    c20.417-20.417,40.833-40.833,61.249-61.249c1.742-1.742,3.484-3.484,5.226-5.226c-26.399,0-52.797,0-79.196,0    c19.699,19.699,39.398,39.397,59.097,59.096c43.266,43.266,86.532,86.532,129.798,129.798    c43.088,43.088,86.176,86.176,129.264,129.264c19.17,19.17,38.34,38.339,57.51,57.509c21.574,21.575,57.621,21.575,79.195,0    c21.575-21.574,21.575-57.621,0-79.195c-19.698-19.699-39.397-39.397-59.096-59.097c-43.267-43.266-86.532-86.532-129.799-129.798    c-43.088-43.088-86.176-86.176-129.264-129.263c-19.17-19.17-38.34-38.34-57.509-57.51c-21.575-21.575-57.621-21.575-79.196,0    c-32.253,32.253-64.506,64.506-96.759,96.759c-37.809,37.809-65.579,84.857-81.043,135.99    c-15.962,52.778-16.616,109.393-5.065,163.07c11.741,54.562,39.793,104.961,76.975,146.211    c37.677,41.8,87.544,72.134,140.914,89.276c52.601,16.896,109.089,18.001,162.992,7.365    c54.76-10.805,105.169-38.303,146.985-74.757c17.865-15.575,34.105-33.29,50.846-50.031    c18.977-18.976,37.952-37.952,56.929-56.929c0.697-0.697,1.395-1.395,2.092-2.093c21.575-21.575,21.575-57.62,0-79.195    C772.662,512.344,736.615,512.344,715.041,533.919z"/></g></g><g display="none"><g display="inline"><path d="M502.699,321.577c30.477-30.477,60.953-60.953,91.429-91.429c35.316-35.316,70.632-70.632,105.948-105.948    c0.567-0.567,1.134-1.135,1.701-1.702c21.575-21.575,21.575-57.621,0-79.196c-21.574-21.575-57.621-21.575-79.195,0    c-30.477,30.477-60.953,60.953-91.429,91.429c-35.316,35.316-70.632,70.632-105.948,105.948c-0.567,0.567-1.134,1.135-1.702,1.702    c-21.575,21.575-21.575,57.621,0,79.196C445.079,343.152,481.125,343.152,502.699,321.577L502.699,321.577z"/></g></g><g display="none"><g display="inline"><path d="M829.991,250.71c-30.477,30.477-60.953,60.953-91.43,91.43c-35.315,35.316-70.632,70.632-105.948,105.948    c-0.567,0.567-1.134,1.135-1.701,1.702c-21.575,21.575-21.575,57.622,0,79.196c21.574,21.575,57.621,21.575,79.195,0    c30.477-30.477,60.953-60.953,91.43-91.429c35.315-35.316,70.632-70.632,105.948-105.948c0.567-0.567,1.135-1.135,1.701-1.702    c21.575-21.575,21.575-57.621,0-79.196C887.612,229.136,851.565,229.136,829.991,250.71L829.991,250.71z"/></g></g><g display="none"><g display="inline"><path d="M95.377,935.474c28.399-28.399,56.798-56.799,85.198-85.197c41.38-41.381,82.76-82.762,124.141-124.142    c5.465-5.465,10.93-10.93,16.395-16.396c21.575-21.574,21.575-57.621,0-79.195c-21.575-21.575-57.621-21.575-79.196,0    c-28.399,28.399-56.798,56.799-85.198,85.197c-41.38,41.381-82.76,82.762-124.141,124.142c-5.465,5.465-10.93,10.93-16.395,16.396    c-21.575,21.574-21.575,57.621,0,79.195C37.756,957.049,73.802,957.049,95.377,935.474L95.377,935.474z"/></g></g><g display="none"><g display="inline"><path d="M729.92,548.767c-32.253,32.254-64.506,64.508-96.759,96.761c-8.003,8.004-16.49,15.483-25.414,22.443    c2.361-1.824,4.723-3.648,7.084-5.473c-17.973,13.862-37.574,25.376-58.442,34.303c2.787-1.176,5.574-2.352,8.36-3.528    c-21.707,9.151-44.478,15.396-67.81,18.636c3.102-0.417,6.202-0.834,9.304-1.25c-23.645,3.158-47.558,3.197-71.213,0.12    c3.102,0.417,6.203,0.834,9.304,1.25c-23.346-3.158-46.141-9.32-67.888-18.384c2.787,1.177,5.574,2.353,8.361,3.528    c-21.344-9.027-41.383-20.747-59.728-34.908c2.361,1.824,4.722,3.648,7.083,5.473c-17.682-13.803-33.579-29.7-47.382-47.382    c1.824,2.361,3.648,4.723,5.473,7.084c-14.161-18.344-25.881-38.384-34.908-59.728c1.176,2.787,2.352,5.574,3.528,8.361    c-9.063-21.747-15.225-44.542-18.384-67.888c0.417,3.101,0.833,6.202,1.25,9.304c-3.077-23.654-3.038-47.569,0.121-71.213    c-0.417,3.101-0.833,6.203-1.25,9.304c3.24-23.333,9.484-46.103,18.635-67.811c-1.176,2.787-2.352,5.574-3.528,8.361    c8.928-20.868,20.441-40.47,34.304-58.442c-1.824,2.361-3.648,4.722-5.473,7.083c15.711-20.141,34.7-37.67,52.729-55.698    c20.416-20.417,40.833-40.833,61.249-61.249c1.742-1.742,3.484-3.484,5.226-5.226c-16.499,0-32.998,0-49.497,0    c19.699,19.699,39.397,39.397,59.096,59.096c43.266,43.266,86.532,86.532,129.798,129.797    c43.088,43.088,86.176,86.176,129.264,129.263c19.17,19.17,38.339,38.34,57.509,57.51c13.484,13.484,36.014,13.484,49.498,0    s13.484-36.014,0-49.498c-19.699-19.698-39.397-39.397-59.097-59.096c-43.266-43.266-86.532-86.532-129.798-129.797    c-43.088-43.087-86.176-86.175-129.264-129.263c-19.17-19.169-38.34-38.339-57.51-57.509c-13.484-13.484-36.013-13.484-49.497,0    c-32.253,32.253-64.506,64.506-96.76,96.759c-35.254,35.254-61.219,79.032-75.643,126.724    c-14.86,49.134-15.829,101.883-5.064,151.904c10.982,51.037,36.751,98.312,71.574,136.944    c35.282,39.142,81.621,67.806,131.647,83.875c48.941,15.72,101.6,17.275,151.826,7.365    c51.185-10.099,98.569-35.227,137.719-69.356c17.865-15.574,34.105-33.289,50.847-50.03c18.976-18.977,37.952-37.953,56.928-56.93    c0.697-0.697,1.395-1.395,2.093-2.092c13.484-13.484,13.484-36.014,0-49.498S743.404,535.283,729.92,548.767z"/></g></g><g display="none"><g display="inline"><path d="M487.881,306.728c30.476-30.476,60.952-60.953,91.429-91.429c35.315-35.316,70.632-70.632,105.947-105.948    c0.567-0.567,1.135-1.135,1.702-1.702c13.484-13.484,13.484-36.013,0-49.497s-36.014-13.484-49.498,0    c-30.476,30.476-60.952,60.953-91.429,91.429c-35.315,35.316-70.632,70.632-105.947,105.948c-0.567,0.567-1.135,1.135-1.702,1.702    c-13.484,13.484-13.484,36.013,0,49.497C451.867,320.212,474.396,320.212,487.881,306.728L487.881,306.728z"/></g></g><g display="none"><g display="inline"><path d="M844.87,265.561c-30.477,30.476-60.952,60.953-91.429,91.429c-35.316,35.316-70.632,70.632-105.948,105.949    c-0.567,0.567-1.135,1.134-1.702,1.702c-13.484,13.484-13.484,36.013,0,49.498s36.014,13.484,49.498,0    c30.476-30.477,60.952-60.953,91.429-91.429c35.316-35.316,70.632-70.632,105.948-105.949c0.567-0.567,1.135-1.134,1.702-1.702    c13.484-13.484,13.484-36.013,0-49.497S858.354,252.076,844.87,265.561L844.87,265.561z"/></g></g><g display="none"><g display="inline"><path d="M80.559,920.625c28.399-28.399,56.799-56.799,85.198-85.198c41.38-41.381,82.761-82.761,124.141-124.142    c5.465-5.465,10.93-10.93,16.395-16.395c13.484-13.484,13.484-36.014,0-49.498s-36.013-13.484-49.497,0    c-28.399,28.399-56.799,56.799-85.198,85.198c-41.38,41.381-82.761,82.761-124.141,124.142    c-5.465,5.465-10.93,10.93-16.395,16.395c-13.484,13.484-13.484,36.014,0,49.498S67.075,934.109,80.559,920.625L80.559,920.625z"/></g></g><g display="none"><g display="inline"><path d="M443.79,418.167c-29.61,21-59.22,42-88.83,62.999c-10.321,7.32-17.335,17.037-17.335,30.222    c0,14.781,10.584,30.647,25.696,33.75c32.473,6.666,64.945,13.333,97.418,20c-2.787-21.324-5.574-42.647-8.361-63.972    c-29.61,21-59.22,42-88.83,62.999c-7.694,5.457-13.506,11.541-16.085,20.917c-2.485,9.034-1.207,18.887,3.528,26.97    c9.004,15.37,32.296,23.613,47.887,12.557c29.61-21,59.22-42,88.83-62.999c10.321-7.32,17.335-17.037,17.335-30.222    c0-14.781-10.584-30.647-25.695-33.75c-32.473-6.666-64.946-13.333-97.418-20c2.787,21.324,5.574,42.647,8.361,63.972    c29.61-21,59.22-42,88.83-62.999c7.694-5.457,13.506-11.542,16.085-20.917c2.484-9.034,1.207-18.886-3.528-26.969    C482.673,415.354,459.381,407.11,443.79,418.167L443.79,418.167z"/></g></g><g display="none"><g display="inline"><path d="M739.819,558.667c-32.253,32.254-64.506,64.508-96.759,96.762c-6.638,6.638-13.61,12.916-20.885,18.85    c-1.121,0.914-2.256,1.811-3.392,2.706c4.479-3.533,0.547-0.433-0.323,0.224c-2.291,1.728-4.623,3.398-6.969,5.051    c-5.043,3.551-10.237,6.883-15.517,10.07c-10.025,6.053-20.498,11.351-31.238,16.013c5.89-2.557-2.55,1.006-4.01,1.576    c-2.589,1.012-5.201,1.962-7.82,2.891c-5.656,2.007-11.396,3.775-17.175,5.393c-11.063,3.095-22.343,5.381-33.71,7.019    c6.839-0.985-2.326,0.249-3.967,0.426c-2.731,0.293-5.47,0.523-8.209,0.732c-5.934,0.453-11.883,0.662-17.832,0.718    c-11.447,0.107-22.894-0.609-34.257-1.969c-4.888-0.584,5.005,0.712,0.13,0.026c-1.363-0.191-2.722-0.403-4.081-0.616    c-2.721-0.426-5.431-0.914-8.137-1.423c-5.875-1.106-11.702-2.455-17.489-3.954c-11.192-2.899-22.164-6.615-32.879-10.948    c-4.563-1.846,4.398,1.899-0.128-0.043c-1.284-0.552-2.559-1.123-3.834-1.694c-2.556-1.146-5.084-2.352-7.603-3.578    c-5.487-2.671-10.857-5.576-16.145-8.621c-4.922-2.835-9.729-5.867-14.458-9.013c-2.381-1.585-4.724-3.227-7.053-4.887    c-1.168-0.834-2.324-1.687-3.479-2.539c-0.943-0.695-6.202-4.776-1.476-1.087c-9.613-7.505-18.64-15.744-27.143-24.481    c-4.085-4.197-7.998-8.561-11.799-13.016c-1.882-2.207-3.71-4.459-5.52-6.725c-3.14-3.934,2.792,3.684-0.255-0.31    c-1.163-1.523-2.297-3.068-3.427-4.617c-6.979-9.567-13.234-19.652-18.866-30.066c-2.671-4.938-5.144-9.982-7.494-15.081    c-0.655-1.422-4.258-9.877-1.786-3.946c-1.25-2.999-2.42-6.03-3.558-9.072c-4.043-10.808-7.291-21.903-9.893-33.142    c-1.243-5.37-2.277-10.786-3.185-16.223c-0.271-1.624-1.531-10.801-0.639-3.945c-0.414-3.181-0.746-6.371-1.044-9.563    c-1.066-11.395-1.312-22.858-0.911-34.293c0.192-5.49,0.597-10.972,1.127-16.439c0.266-2.736,0.595-5.465,0.944-8.192    c-0.807,6.286-0.17,1.412,0.021,0.136c0.271-1.814,0.575-3.624,0.883-5.433c1.934-11.339,4.69-22.529,8.077-33.519    c1.635-5.305,3.478-10.543,5.443-15.733c0.986-2.604,2.034-5.186,3.102-7.757c-2.287,5.506-0.382,0.968,0.092-0.11    c0.751-1.707,1.535-3.398,2.322-5.088c4.966-10.655,10.729-20.928,17.072-30.821c3.087-4.814,6.369-9.5,9.762-14.103    c0.854-1.159,1.727-2.303,2.599-3.447c-3.464,4.542-0.397,0.556,0.281-0.294c2.113-2.649,4.298-5.239,6.51-7.805    c4.449-5.159,9.141-10.099,13.957-14.915c32.018-32.017,64.035-64.034,96.052-96.052c-9.899,0-19.799,0-29.698,0    c19.699,19.699,39.397,39.397,59.096,59.096c43.266,43.266,86.532,86.532,129.798,129.798    c43.088,43.088,86.176,86.176,129.264,129.264c19.17,19.17,38.339,38.34,57.509,57.51c8.091,8.09,21.608,8.09,29.699,0    c8.09-8.091,8.09-21.608,0-29.699c-19.699-19.698-39.397-39.397-59.097-59.096c-43.266-43.266-86.532-86.532-129.798-129.798    c-43.088-43.088-86.176-86.176-129.264-129.264c-19.17-19.17-38.34-38.34-57.51-57.509c-8.09-8.091-21.608-8.091-29.698,0    c-32.253,32.253-64.506,64.506-96.76,96.759c-33.555,33.555-58.311,75.144-72.042,120.546    c-14.127,46.712-15.306,96.87-5.065,144.461c21.319,99.07,97.48,180.218,193.443,211.042    c46.508,14.938,96.602,16.793,144.382,7.365c48.803-9.629,94.168-33.175,131.541-65.756c17.865-15.574,34.105-33.289,50.847-50.03    c18.976-18.977,37.952-37.953,56.928-56.93c0.697-0.697,1.395-1.395,2.093-2.092c8.09-8.091,8.09-21.608,0-29.699    C761.428,550.578,747.91,550.578,739.819,558.667z"/></g></g><g display="none"><g display="inline"><path d="M477.981,296.828c30.476-30.476,60.952-60.953,91.429-91.429c35.315-35.316,70.632-70.632,105.947-105.948    c0.567-0.567,1.135-1.134,1.702-1.702c8.09-8.09,8.09-21.608,0-29.698c-8.091-8.091-21.608-8.091-29.699,0    c-30.476,30.476-60.952,60.953-91.429,91.429c-35.315,35.316-70.632,70.632-105.947,105.948c-0.567,0.567-1.135,1.134-1.702,1.702    c-8.091,8.09-8.091,21.608,0,29.698C456.373,304.919,469.891,304.919,477.981,296.828L477.981,296.828z"/></g></g><g display="none"><g display="inline"><path d="M854.77,275.459c-30.476,30.477-60.952,60.953-91.429,91.429c-35.316,35.316-70.632,70.632-105.948,105.949    c-0.567,0.567-1.135,1.134-1.702,1.702c-8.09,8.09-8.09,21.608,0,29.699c8.091,8.09,21.608,8.09,29.699,0    c30.476-30.477,60.952-60.953,91.429-91.43c35.316-35.316,70.632-70.632,105.948-105.949c0.567-0.567,1.135-1.134,1.702-1.702    c8.09-8.09,8.09-21.608,0-29.698C876.378,267.369,862.86,267.369,854.77,275.459L854.77,275.459z"/></g></g><g display="none"><g display="inline"><path d="M70.659,910.726c28.399-28.399,56.799-56.799,85.198-85.198c41.38-41.381,82.76-82.761,124.141-124.142    c5.465-5.465,10.93-10.93,16.395-16.395c8.091-8.091,8.091-21.608,0-29.699c-8.09-8.09-21.608-8.09-29.698,0    c-28.399,28.399-56.799,56.799-85.198,85.198c-41.38,41.381-82.76,82.761-124.141,124.142c-5.465,5.465-10.93,10.93-16.395,16.395    c-8.091,8.091-8.091,21.608,0,29.699C49.051,918.816,62.569,918.816,70.659,910.726L70.659,910.726z"/></g></g><g display="none"><g display="inline"><path d="M455.202,430.258c-31.145,28.333-62.289,56.667-93.434,85c-13.814,12.567-2.832,35.85,14.849,35.85    c31.145,0,62.289,0,93.434,0c-4.95-11.95-9.899-23.899-14.849-35.85c-31.145,28.334-62.289,56.667-93.434,85    c-8.469,7.705-7.805,21.895,0,29.699c8.376,8.376,21.238,7.696,29.698,0c31.145-28.334,62.289-56.667,93.434-85    c13.813-12.567,2.831-35.85-14.85-35.85c-31.145,0-62.289,0-93.434,0c4.95,11.95,9.899,23.899,14.849,35.85    c31.145-28.334,62.289-56.667,93.434-85.001c8.469-7.705,7.804-21.894,0-29.698C476.523,421.882,463.661,422.562,455.202,430.258    L455.202,430.258z"/></g></g><g display="none"><g display="inline"><path d="M747.213,566.092c-32.253,32.254-64.506,64.508-96.759,96.761c-63.86,63.861-158.055,88.979-245.095,66.433    c-45.237-11.718-86.292-36.152-118.831-69.592c-32.442-33.339-54.823-75.362-65.298-120.608    c-10.148-43.838-7.977-90.058,5.272-133.053c12.214-39.636,34.575-75.441,63.84-104.706    c32.018-32.018,64.036-64.035,96.053-96.052c-4.95,0-9.9,0-14.85,0c19.699,19.699,39.397,39.397,59.096,59.096    c43.266,43.266,86.532,86.532,129.798,129.798c43.088,43.088,86.176,86.175,129.264,129.263    c19.17,19.17,38.339,38.34,57.509,57.51c9.584,9.583,24.433-5.266,14.85-14.85c-19.699-19.698-39.397-39.397-59.097-59.096    c-43.266-43.266-86.531-86.532-129.797-129.798c-43.088-43.088-86.176-86.175-129.264-129.263    c-19.17-19.17-38.34-38.34-57.509-57.51c-4.045-4.045-10.804-4.045-14.85,0c-32.253,32.253-64.506,64.506-96.76,96.759    c-66.386,66.385-94.116,163.2-74.407,254.792c20.545,95.474,93.492,173.959,186.109,203.708    c91.446,29.373,193.577,7.192,265.707-55.69c17.865-15.574,34.105-33.289,50.847-50.03c18.976-18.977,37.952-37.953,56.928-56.93    c0.697-0.697,1.396-1.395,2.093-2.092C771.646,571.358,756.797,556.508,747.213,566.092z"/></g></g><g display="none"><g display="inline"><path d="M470.525,289.404c30.476-30.477,60.952-60.953,91.429-91.429c35.315-35.316,70.632-70.632,105.947-105.948    c0.567-0.567,1.135-1.135,1.702-1.702c9.583-9.584-5.266-24.433-14.85-14.85c-30.476,30.477-60.952,60.953-91.429,91.429    c-35.315,35.316-70.632,70.632-105.947,105.948c-0.567,0.567-1.135,1.135-1.702,1.702    C446.092,284.138,460.941,298.987,470.525,289.404L470.525,289.404z"/></g></g><g display="none"><g display="inline"><path d="M862.163,282.884c-30.477,30.477-60.952,60.953-91.429,91.43c-35.316,35.316-70.633,70.632-105.948,105.948    c-0.567,0.567-1.135,1.135-1.702,1.702c-9.583,9.584,5.266,24.434,14.85,14.85c30.477-30.477,60.952-60.953,91.429-91.43    c35.316-35.316,70.633-70.632,105.948-105.948c0.567-0.567,1.135-1.135,1.702-1.702    C886.597,288.149,871.747,273.3,862.163,282.884L862.163,282.884z"/></g></g><g display="none"><g display="inline"><path d="M63.205,903.301c28.399-28.399,56.798-56.799,85.198-85.198c41.38-41.381,82.76-82.761,124.14-124.142    c5.465-5.465,10.93-10.93,16.396-16.395c9.583-9.584-5.266-24.434-14.85-14.85c-28.399,28.399-56.798,56.799-85.198,85.198    c-41.38,41.381-82.76,82.761-124.14,124.142c-5.465,5.465-10.93,10.93-16.396,16.395    C38.771,898.036,53.621,912.885,63.205,903.301L63.205,903.301z"/></g></g><g display="none"><g display="inline"><path d="M471.976,426.963c-31.144,28.333-62.289,56.667-93.433,85c-6.907,6.283-1.416,17.925,7.425,17.925    c31.145,0,62.289,0,93.433,0c-2.475-5.975-4.95-11.95-7.425-17.925c-31.144,28.333-62.289,56.667-93.433,85    c-10.037,9.132,4.858,23.939,14.85,14.85c31.144-28.333,62.289-56.667,93.433-85c6.906-6.283,1.415-17.925-7.425-17.925    c-31.145,0-62.289,0-93.433,0c2.475,5.975,4.95,11.95,7.425,17.925c31.144-28.334,62.289-56.667,93.433-85    C496.862,432.681,481.967,417.874,471.976,426.963L471.976,426.963z"/></g></g><text x="-52.046" y="1014.308" fill="#000000" font-size="5px" font-weight="bold" font-family="'Helvetica Neue', Helvetica, Arial-Unicode, Arial, Sans-serif">Created by shashank singh</text><text x="-52.046" y="1019.308" fill="#000000" font-size="5px" font-weight="bold" font-family="'Helvetica Neue', Helvetica, Arial-Unicode, Arial, Sans-serif">from the Noun Project</text></svg>