<svg xmlns="http://www.w3.org/2000/svg" xmlns:xlink="http://www.w3.org/1999/xlink" version="1.1" x="0px" y="0px" viewBox="0 0 100 125" enable-background="new 0 0 100 100" xml:space="preserve"><path d="M79.271,37.181l-16.451,0.001V20.73c0-3.085-2.51-5.595-5.596-5.595H42.776c-3.085,0-5.595,2.51-5.595,5.595  c0,0,0,12.754-0.001,16.451H20.729c-3.085,0-5.595,2.51-5.595,5.595v14.448c0,3.085,2.51,5.595,5.595,5.595h16.451  c0.001,3.697,0.001,16.451,0.001,16.451c0,3.085,2.51,5.595,5.595,5.595h14.447c3.086,0,5.596-2.51,5.596-5.595V62.817l16.451,0.001  c3.085,0,5.595-2.51,5.595-5.595V42.776C84.865,39.691,82.355,37.181,79.271,37.181z M82.865,57.224  c0,1.982-1.612,3.595-3.595,3.595l-17.451-0.001c-0.266,0-0.52,0.105-0.707,0.293s-0.293,0.442-0.293,0.707V79.27  c0,1.982-1.613,3.595-3.596,3.595H42.776c-1.982,0-3.595-1.613-3.595-3.595l-0.001-14.724c0-3.345,0-3.345-0.554-3.622  c-0.139-0.069-0.292-0.105-0.447-0.105h-17.45c-1.982,0-3.595-1.613-3.595-3.595V42.776c0-1.982,1.612-3.595,3.595-3.595h17.45  c0.155,0,0.309-0.036,0.447-0.105c0.554-0.277,0.554-0.277,0.554-3.622l0.001-14.724c0-1.982,1.612-3.595,3.595-3.595h14.447  c1.982,0,3.596,1.613,3.596,3.595v17.453c0,0.265,0.105,0.52,0.293,0.707s0.441,0.293,0.707,0.293l17.451-0.001  c1.982,0,3.595,1.613,3.595,3.595V57.224z"/><text x="0" y="115" fill="#000000" font-size="5px" font-weight="bold" font-family="'Helvetica Neue', Helvetica, Arial-Unicode, Arial, Sans-serif">Created by Alina Oleynik</text><text x="0" y="120" fill="#000000" font-size="5px" font-weight="bold" font-family="'Helvetica Neue', Helvetica, Arial-Unicode, Arial, Sans-serif">from the Noun Project</text></svg>