<?xml version="1.0" encoding="utf-8"?>
<!-- Generator: Adobe Illustrator 19.0.0, SVG Export Plug-In . SVG Version: 6.00 Build 0)  -->
<svg version="1.1" xmlns="http://www.w3.org/2000/svg" xmlns:xlink="http://www.w3.org/1999/xlink" x="0px" y="0px"
	 viewBox="-427 3394.3 150.1 150.1" style="enable-background:new -427 3394.3 150.1 150.1;" xml:space="preserve">
<style type="text/css">
	.st0{display:none;}
	.st1{display:inline;}
</style>
<g id="Слой_1" class="st0">
	<path class="st1" d="M-286.4,3508.7h-131c-3.6,0-6.6-3-6.6-6.6l0,0c0-3.6,3-6.6,6.6-6.6h130.9c3.6,0,6.6,3,6.6,6.6l0,0
		C-279.7,3505.6-282.8,3508.7-286.4,3508.7z"/>
	<path class="st1" d="M-334.9,3431.2v33.2h-5.7v-37.4c0-4.3-3.2-7.9-7-7.9h-8.9c-3.8,0-7,3.6-7,7.9v37.4h-5.5V3431
		c-26.6,6.8-45.1,30.6-46.1,58.9h80.1v-0.2h46.1C-289.8,3461.8-308.3,3438.2-334.9,3431.2z"/>
</g>
<g id="Слой_2" class="st0">
	<path class="st1" d="M-294.7,3485.1l-27.4-15.8l27.4-15.8c0.3-0.2,0.5-0.5,0.6-0.8c0.1-0.3,0-0.7-0.1-1l-13.6-23.6
		c-0.4-0.6-1.2-0.8-1.8-0.5l-28,15.9v-31.8c0-0.7-0.6-1.3-1.3-1.3H-365c-0.7,0-1.3,0.6-1.3,1.3v31.8l-28-15.9
		c-0.6-0.4-1.4-0.1-1.8,0.5l-13.6,23.6c-0.2,0.3-0.2,0.7-0.1,1s0.3,0.6,0.6,0.8l27.4,15.8l-27.4,15.8c-0.3,0.2-0.5,0.5-0.6,0.8
		c-0.1,0.3,0,0.7,0.1,1l13.6,23.6c0.2,0.4,0.7,0.7,1.1,0.7c0.2,0,0.4-0.1,0.6-0.2l28-15.9v31.8c0,0.7,0.6,1.3,1.3,1.3h26.2
		c0.7,0,1.3-0.6,1.3-1.3v-31.8l28,15.9c0.2,0.1,0.4,0.2,0.6,0.2c0.5,0,0.9-0.2,1.1-0.7l13.6-23.6c0.2-0.3,0.2-0.7,0.1-1
		C-294.2,3485.6-294.4,3485.3-294.7,3485.1z"/>
</g>
<g id="Слой_3">
	<g>
		<polygon points="-382.7,3523.6 -360.1,3473.7 -385.4,3473.7 -374.3,3414.9 -334.1,3414.9 -351.1,3454.8 -318.6,3454.8 		"/>
		<g>
			<path d="M-376.2,3527.4c1.9-4.2,3.8-8.3,5.7-12.5c3.6-7.9,7.1-15.7,10.7-23.6c2.1-4.6,4.2-9.2,6.3-13.8c0,0,0,0,0-0.1
				c0.7-1.2,1-2.4,1-3.8c0-1.4-0.3-2.6-1-3.8c-1.3-2.3-3.8-3.7-6.5-3.7c-6.7,0-13.3,0-20,0c-1.8,0-3.6,0-5.3,0
				c2.4,3.2,4.8,6.3,7.2,9.5c0.8-4.2,1.6-8.4,2.4-12.6c1.6-8.4,3.2-16.9,4.8-25.3c1.2-6.4,2.4-12.7,3.6-19.1
				c0.1-0.6,0.2-1.2,0.3-1.7c-2.4,1.8-4.8,3.7-7.2,5.5c5.6,0,11.2,0,16.8,0c7.3,0,14.7,0,22,0c0.4,0,0.9,0,1.3,0
				c-2.2-3.8-4.3-7.5-6.5-11.3c-2.1,4.9-4.2,9.8-6.3,14.7c-3.1,7.3-6.2,14.6-9.3,21.9c-0.5,1.1-0.9,2.2-1.4,3.2
				c-0.7,1.2-1,2.4-1,3.8c0,1.4,0.3,2.6,1,3.8c1.3,2.3,3.8,3.7,6.5,3.7c6.2,0,12.4,0,18.6,0c4.6,0,9.3,0,13.9,0
				c-1.8-4.3-3.5-8.6-5.3-12.8c-2,2.2-4,4.3-6.1,6.5c-4.9,5.3-9.8,10.5-14.7,15.8c-6,6.4-12,12.9-18,19.3
				c-5.4,5.7-10.7,11.5-16.1,17.2c-2.9,3.2-5.9,6.3-8.8,9.5c-0.2,0.2-0.3,0.3-0.5,0.5c-2.8,3-3,7.7,0,10.6c2.8,2.8,7.8,3,10.6,0
				c2-2.2,4-4.3,6.1-6.5c4.9-5.3,9.8-10.5,14.7-15.8c6-6.4,12-12.9,18-19.3c5.4-5.7,10.7-11.5,16.1-17.2c2.9-3.2,5.9-6.3,8.8-9.5
				c0.2-0.2,0.3-0.3,0.5-0.5c1.8-2,2.7-4.7,1.9-7.3c-0.9-3.2-3.9-5.5-7.2-5.5c-6.2,0-12.4,0-18.6,0c-4.6,0-9.3,0-13.9,0
				c2.2,3.8,4.3,7.5,6.5,11.3c2.1-4.9,4.2-9.8,6.3-14.7c3.1-7.3,6.2-14.6,9.3-21.9c0.5-1.1,0.9-2.2,1.4-3.2c0.7-1.2,1-2.4,1-3.8
				c0-1.4-0.3-2.6-1-3.8c-1.3-2.3-3.8-3.7-6.5-3.7c-5.6,0-11.2,0-16.8,0c-7.3,0-14.7,0-22,0c-0.4,0-0.9,0-1.3,0
				c-1.4,0-2.6,0.3-3.8,1c-1.6,0.9-3.1,2.7-3.5,4.5c-0.8,4.2-1.6,8.4-2.4,12.6c-1.6,8.4-3.2,16.9-4.8,25.3
				c-1.2,6.4-2.4,12.7-3.6,19.1c-0.1,0.6-0.2,1.2-0.3,1.7c-0.4,2-0.3,3.9,0.8,5.8c1.3,2.3,3.8,3.7,6.5,3.7c6.7,0,13.3,0,20,0
				c1.8,0,3.6,0,5.3,0c-2.2-3.8-4.3-7.5-6.5-11.3c-1.9,4.2-3.8,8.3-5.7,12.5c-3.6,7.9-7.1,15.7-10.7,23.6c-2.1,4.6-4.2,9.2-6.3,13.8
				c0,0,0,0,0,0.1c-0.3,0.6-0.5,1.2-0.8,1.8c-0.4,1.3-0.4,2.7,0,4c0.5,1.9,1.8,3.5,3.5,4.5c1.7,1,3.9,1.3,5.8,0.8
				C-379,3530.4-377,3529.1-376.2,3527.4z"/>
		</g>
	</g>
</g>
</svg>
